<svg xmlns="http://www.w3.org/2000/svg" viewBox="0 0 88.501 303.369"><defs><style>.a{fill:#3f5d45;}</style></defs><g transform="translate(44.251 151.685)"><g transform="translate(-44.251 -151.685)"><path class="a" d="M81.883,20.626c1.512-1.62,1.656-1.656,1.944-1.656.36,0,.54.036,2.124,1.368,1.476,1.224,1.62,1.439,1.62,1.8s-.144.54-1.152,1.224c-.756,4.859-1.62,7.667-2.7,8.855a5.814,5.814,0,0,1-4.463,1.655c-.936,0-1.152-.144-1.332-.864-.4-1.583-.972-2.268-3.6-3.131-.216-.072-.216-.4,0-.4,1.944.036,2.772,0,3.852-.072a2.49,2.49,0,0,0,2.34-1.224,20.065,20.065,0,0,0,1.62-6.839h-16.6c-4.067,4.283-7.847,6.911-11.338,8.1-.216.072-.324-.252-.144-.359,2.3-1.224,6.443-5,9.143-9.467A51.291,51.291,0,0,0,67.989,9.611H62.841a31.629,31.629,0,0,0-4.248.252l-.36-1.224a40.137,40.137,0,0,0,4.607.252h5.4c.4-1.3.792-2.628,1.116-4.032A27.835,27.835,0,0,0,70.22,0c5.4,1.656,5.98,2.16,5.98,2.7,0,.5-.36.9-1.692,1.151a51.774,51.774,0,0,1-1.656,5.04H75.12c1.548-1.62,1.8-1.729,2.052-1.729.324,0,.5.072,1.98,1.152,1.3.936,1.368,1.08,1.368,1.368s-.108.4-1.152,1.151C79,11.951,78.5,13.5,78,14.9h.54c1.584-1.619,1.728-1.691,2.016-1.691.324,0,.612.144,1.943,1.188,1.224.972,1.368,1.116,1.368,1.4,0,.359-.144.5-1.044,1.079-.324,1.188-.72,2.412-1.116,3.744Zm-18,3.1a6.364,6.364,0,0,1,1.764,4.5c0,1.332-.9,3.239-2.844,3.239a2.1,2.1,0,0,1-2.339-2.016,2.273,2.273,0,0,1,1.043-1.907A4.472,4.472,0,0,0,63.6,23.829c0-.216.141-.288.285-.107Zm-2.2-22.5c3.744.18,5.939,2.052,5.939,4.139a2.671,2.671,0,0,1-2.556,2.88,1.947,1.947,0,0,1-2.052-2.124c0-2.339-.288-3.779-1.476-4.571-.172-.11-.064-.325.151-.325Zm8.063,14.4a32.671,32.671,0,0,1-3.527,5h11.05c.576-1.944,1.08-3.6,1.4-5ZM70.9,27.9a2.2,2.2,0,0,1-2.2,2.2,1.64,1.64,0,0,1-1.692-1.872c.216-2.3.072-3.672-.5-4.644-.108-.18-.036-.323.18-.252C69.752,24.189,70.9,26.313,70.9,27.9ZM72.6,9.611A52.4,52.4,0,0,1,70.148,14.9H73.64c.684-2.159,1.26-3.888,1.62-5.291ZM73.676,28.9a1.525,1.525,0,0,1-1.656-1.691c.036-1.584-.036-3.1-1.08-4.14-.144-.144-.072-.288.144-.252,3.167.5,4.679,2.124,4.679,4.067A2.1,2.1,0,0,1,73.676,28.9Zm1.764-6.335c-.18-.107-.108-.324.108-.288,3.023.288,4.931,1.4,4.931,3.6a2,2,0,0,1-1.908,1.944,1.6,1.6,0,0,1-1.764-1.548c-.107-1.58-.288-3.019-1.367-3.7Z" transform="translate(-0.001 0)"/><path class="a" d="M59.89,56.519a31.861,31.861,0,0,1-5.867,5.22c-.18.108-.432-.144-.288-.288,2.592-2.916,5.58-8.783,7.919-15.622a19.527,19.527,0,0,0,.684-2.592c5.183,2.088,5.651,2.412,5.651,2.952s-.288.756-1.62,1.115a38.638,38.638,0,0,1-3.635,5.8C65,53.927,65.4,54.215,65.4,54.647c0,.323-.216.575-1.116.936v8.063c0,8.675.072,10.906.072,11.806,0,1.008-1.116,1.548-3.2,1.548-1.368,0-1.583-.288-1.583-1.224s.144-3.384.216-8.387Zm21.525.36c2.556-3.42,2.7-3.527,3.06-3.527.4,0,.54.071,2.627,2.123,1.332,1.332,1.4,1.477,1.4,1.729s-.18.4-.468.4H78.571c0,10.763.18,16.954.18,17.89,0,1.044-.9,1.512-3.168,1.512C74,77,73.64,76.856,73.64,75.7c0-.972.252-6.911.252-18.1H69.681c-.828,0-2.376.072-4.068.252l-.36-1.224c1.764.18,3.384.252,4.428.252h4.211c0-10.619-.036-11.734-.216-13.679,5.8.5,6.228.864,6.228,1.368,0,.4-.36.648-1.332,1.188V56.879Z" transform="translate(-0.001 0)"/><path class="a" d="M68.781,96.3c0,4.644.108,7.486.108,7.955,0,.863-.72,1.26-2.16,1.26-1.044,0-1.224-.181-1.224-1.08,0-.288.072-2.412.108-5.724a2.27,2.27,0,0,1-.684.4c-.468,3.527-1.872,5.615-4.607,6.982a26.615,26.615,0,0,1-1.656,7.416,16.679,16.679,0,0,1-4.607,6.658.206.206,0,0,1-.288-.287,12.9,12.9,0,0,0,2.16-5.8c.54-3.1.684-6.587.684-13.714,0-5.651-.108-8.063-.36-10.942,4.031,1.008,5,1.3,5.183,1.691h7.7v-.9a24.084,24.084,0,0,0-.216-3.887c5.688.359,6.372.756,6.372,1.3,0,.432-.18.611-1.476,1.188v2.3h7.019c2.592-3.023,2.7-3.132,3.06-3.132s.54.072,2.447,1.872c1.224,1.151,1.3,1.3,1.3,1.62,0,.216-.108.359-.4.359H61.257a2.773,2.773,0,0,1-.684.432v7.344c0,2.375-.072,4.319-.216,6.011,1.152-1.4,1.656-3.888,1.656-6.911a10.441,10.441,0,0,0-.072-1.4,13.991,13.991,0,0,1,3.671.72V96.3h-.54a22.61,22.61,0,0,0-3.636.252l-.324-1.224a36.857,36.857,0,0,0,3.959.252h.54a20.834,20.834,0,0,0-.144-3.061c3.563.288,4.1.469,4.1.864,0,.324-.18.468-.792.792v1.4h.864c1.548-2.017,1.656-2.16,1.944-2.16s.36.036,1.512,1.08c.648.611.972.9,1.116,1.08h2.772a20.817,20.817,0,0,0-.144-3.061c3.671.288,4.211.469,4.211.864,0,.324-.18.468-.792.792v1.4h2.088c1.691-2.124,1.8-2.269,2.124-2.269.288,0,.5.108,1.764,1.26,1.08.973,1.188,1.152,1.188,1.4,0,.216-.108.324-.468.324h-6.7c0,4.715.108,7.559.108,8.026,0,.864-.72,1.26-2.268,1.26-1.044,0-1.224-.18-1.224-1.079,0-.288.072-2.376.108-5.615a2.491,2.491,0,0,1-.432.216,8.177,8.177,0,0,1-4.14,6.191c2.16.575,2.448.791,2.448,1.151,0,.468-.4.684-1.8.9-1.152.791-2.2,1.548-3.312,2.3a2.948,2.948,0,0,1,1.3,2.411,2.487,2.487,0,0,1-2.52,2.448,1.739,1.739,0,0,1-1.872-1.261,6.137,6.137,0,0,0-3.563-4.247c-.216-.072-.144-.324.072-.36a12.374,12.374,0,0,1,4.9.217c.36-1.008.684-1.944,1.008-3.1a9.635,9.635,0,0,0,.252-1.26c.972.252,1.8.432,2.448.611,1.116-1.187,1.908-3.527,1.908-6.407a10.441,10.441,0,0,0-.072-1.4,19.3,19.3,0,0,1,3.384.611V96.3Zm17.89,21.093a2.652,2.652,0,0,1-2.7,2.7,2.1,2.1,0,0,1-2.124-1.836,9.893,9.893,0,0,0-.612-1.908c-6.047,1.116-9.971,1.765-18.538,3.132-.36.684-.5.828-.828.828-.468,0-.684-.288-2.2-5.4,1.152.072,1.62.108,2.879.144,3.06.072,5.8.145,8.5.145a54.541,54.541,0,0,0,4.14-6.731,16.877,16.877,0,0,0,.9-1.943c5.219,1.871,5.471,2.052,5.471,2.628,0,.468-.468.647-1.872.791-2.52,1.944-4.427,3.384-7.091,5.256,2.592,0,5.183-.036,8.027-.072a6.344,6.344,0,0,0-2.592-2.483.192.192,0,0,1,.108-.36c6.228.033,8.531,2.7,8.531,5.109ZM72.416,102.635c0,.792-.612,1.008-1.872,1.008-.72,0-.972-.288-.972-.864,0-.539.072-1.512.072-2.951,0-1.044,0-1.728-.036-2.376,3.132.36,3.492.5,3.492.864,0,.252-.108.359-.684.647Zm11.555-1.476c0,.5.072.611.792.611s.972-.071,1.3-.647a16.621,16.621,0,0,0,1.224-2.808c.072-.216.288-.145.252.072-.108,1.151-.144,1.979-.144,2.411a1.166,1.166,0,0,0,.4.936,1.593,1.593,0,0,1,.54,1.261c0,.827-.828,1.548-3.888,1.548-2.808,0-3.312-.54-3.312-1.3,0-.612.072-1.692.072-3.168,0-.972,0-1.764-.072-2.628,3.024.252,3.708.433,3.708.792,0,.288-.108.432-.864.792Z" transform="translate(-0.001 0)"/><path class="a" d="M67.845,164.479v-36H69v36Z" transform="translate(-0.001 0)"/><path class="a" d="M67.845,200.479v-36H69v36Z" transform="translate(-0.001 0)"/><path class="a" d="M1.39,30.887c2.376.18,3.815.252,5.076.252H25.687c2.952-3.708,2.988-3.744,3.348-3.744.4,0,.5.036,2.52,2.052,1.908,1.908,1.979,2.016,1.979,2.268s-.18.4-.468.4H6.466c-1.26,0-2.664.071-4.716.252Z" transform="translate(-0.001 0)"/><path class="a" d="M19.6,83.66a29.507,29.507,0,0,0,4.679.324,66.794,66.794,0,0,0,9.755-.576c.216-.036.252.288.072.4-1.764,1.188-2.16,2.016-2.628,4.1a1.062,1.062,0,0,1-1.008.936,46.809,46.809,0,0,1-5.47.108c-6.083,0-8.855-1.3-11.123-3.42a12.8,12.8,0,0,1-3.6-7.127A19.37,19.37,0,0,1,.707,89.6c-.18.072-.4-.144-.216-.288C3.442,86.9,5.926,81.429,6.43,73.617c.072-.863.072-1.476.072-2.231,5.076,1.152,5.867,1.4,5.867,1.979,0,.324-.252.576-1.152.9a17.038,17.038,0,0,1-.612,3.06,9.78,9.78,0,0,0,2.844,3.96A6.794,6.794,0,0,0,15,82.328V72.609c0-1.331,0-2.411-.108-3.671H10.353c-.828,0-2.375.071-4.067.252l-.36-1.224c1.764.18,3.383.252,4.427.252H22.2c2.231-2.844,2.3-2.916,2.591-2.916s.432.036,2.052,1.62c1.116,1.079,1.332,1.331,1.332,1.619s-.252.4-.54.4H20.4c-.072.216-.252.4-.792.684v6.552h2.664c2.268-3.024,2.376-3.132,2.736-3.132s.468.036,2.448,1.907c.972.9,1.3,1.26,1.3,1.584a.323.323,0,0,1-.36.36H19.6ZM6.718,62.5a7.433,7.433,0,0,1,.36,2.231A3.416,3.416,0,0,1,3.622,68.29a2.173,2.173,0,0,1-2.34-2.268A2.907,2.907,0,0,1,2.794,63.5a3.653,3.653,0,0,0,1.8-3.852c0-.216.252-.252.4-.072a9.632,9.632,0,0,1,1.44,2.2h8.315V58.932a20.151,20.151,0,0,0-.216-2.987c5.759.359,6.443.756,6.443,1.295,0,.433-.18.612-1.476,1.188v3.348h7.3c1.908-2.052,2.087-2.16,2.483-2.16.432,0,.864.216,2.592,1.836,1.4,1.332,1.836,1.908,1.836,2.483,0,.648-.4,1.008-1.692,1.044a7.708,7.708,0,0,0-2.628.36c-.792.288-1.4.5-2.7,1.044-.216.071-.324.036-.252-.181.576-1.655.828-2.52,1.188-3.707Z" transform="translate(-0.001 0)"/><path class="a" d="M27.271,119.086c2.484-3.024,2.664-3.2,3.023-3.2s.576.108,2.376,1.764c1.368,1.26,1.548,1.476,1.548,1.728,0,.288-.144.433-.4.433H23.563c2.3.468,2.7.792,2.7,1.151,0,.433-.252.612-1.584,1.008a27.132,27.132,0,0,1-2.231,3.456,16.947,16.947,0,0,1,5.615,2.159c1.476.937,2.052,1.692,2.052,3.024a2.407,2.407,0,0,1-2.34,2.2,3.687,3.687,0,0,1-2.736-1.26,27.265,27.265,0,0,0-5.075-3.527c-4.1,3.455-9.827,4.931-18.43,4.644-.216,0-.252-.36-.036-.36,6.443-.5,11.555-2.447,15.01-5.939a33.34,33.34,0,0,0-4.644-1.476l-1.008,1.439a2.385,2.385,0,0,1-2.124,1.044c-1.584,0-3.06-.323-3.06-.972a1.466,1.466,0,0,1,.4-.792c1.62-2.088,2.987-3.959,4.175-5.795H5.35a36.62,36.62,0,0,0-4.5.252l-.324-1.224a43.569,43.569,0,0,0,4.823.252h5.363c.864-1.332,1.62-2.664,2.34-4a15.472,15.472,0,0,0,.72-1.548H8.445v.145c0,1.512-.9,1.979-2.808,1.979-1.152,0-1.4-.216-1.4-1.26,0-.432.144-2.664.144-4.464,0-1.943,0-3.6-.108-5.039,3.779.9,4.751,1.188,4.967,1.656h2.375v-3.888h-4.9a49.616,49.616,0,0,0-5.507.252L.886,101.7a56.673,56.673,0,0,0,5.832.252H27.487C29.971,99,30.042,98.964,30.4,98.964s.468.036,2.2,1.584c1.4,1.26,1.512,1.4,1.512,1.728a.346.346,0,0,1-.4.4h-10.4c-.036.18-.288.359-.54.54v3.348H25.58c1.872-2.017,1.98-2.088,2.3-2.088.36,0,.576.071,2.3,1.4,1.26.972,1.332,1.08,1.332,1.44,0,.323-.072.432-1.044,1.224v.756c0,1.764.18,4,.18,4.355,0,1.008-.864,1.655-2.952,1.655-1.476,0-1.728-.287-1.728-1.3v-.468H14.816c3.6.972,4.211,1.4,4.211,1.944,0,.468-.4.756-1.728,1.151-.468.756-.972,1.584-1.512,2.448ZM8.445,112.822h3.167v-5.543H9.057a5.2,5.2,0,0,1-.612.5Zm6.875,6.983c-.972,1.439-1.979,2.987-3.023,4.463,2.052.072,3.923.217,5.651.4A14.07,14.07,0,0,0,19.532,122a19.185,19.185,0,0,0,.864-2.2Zm.252-13.246H18.74v-3.888H16.112c-.036.144-.288.323-.54.5Zm3.168,6.263v-5.543H15.572v5.543Zm4.031-5.543v5.543h3.2v-5.543Z" transform="translate(-0.001 0)"/><path class="a" d="M12.153,153.755c0,5.9.216,8.531.216,9.467,0,1.116-.72,1.764-2.987,1.764-.936,0-1.224-.36-1.224-1.4v-.792H5.422v3.06c0,1.079-.972,1.548-2.916,1.548-.756,0-1.08-.181-1.08-1.332,0-1.008.144-6.7.144-11.879,0-4.14,0-6.155-.144-8.243,3.419.864,4.463,1.368,4.788,1.8H7.761c1.44-1.871,1.584-1.979,1.908-1.979.36,0,.468,0,2.052,1.3,1.368,1.116,1.476,1.3,1.476,1.62,0,.359-.072.468-1.044,1.3Zm-4,8.314v-13.6H6.214a3,3,0,0,1-.792.5v13.1ZM27.415,150.7c2.664-3.491,2.808-3.6,3.167-3.6s.576.072,2.556,2.088c1.224,1.224,1.4,1.439,1.4,1.764s-.144.468-.612.468H18.056a37.461,37.461,0,0,1-5.219,6.371c-.144.145-.468-.036-.36-.216,1.152-1.908,3.06-7.415,3.959-12.347a24.075,24.075,0,0,0,.4-2.808c5.759,1.332,6.083,1.692,6.083,2.124,0,.576-.252.756-1.62,1.188a38.673,38.673,0,0,1-2.772,4.968Zm-5,6.3c2.052-2.268,2.2-2.34,2.556-2.34.4,0,.612.108,2.052,1.332,1.62,1.4,1.8,1.656,1.8,1.98,0,.468-.036.611-2.664,1.943-6.515,7.487-7.631,9.035-7.631,9.827s.144,1.115,5.4,1.115c3.815,0,5.255-.432,6.083-1.26a15.023,15.023,0,0,0,2.843-5.507c.072-.217.288-.145.288.071-.18,2.952-.216,3.96-.216,4.428a2.858,2.858,0,0,0,.576,1.584,3.269,3.269,0,0,1,.576,1.907c0,1.692-1.08,2.88-10.834,2.88-8.279,0-9.287-1.4-9.287-3.707,0-1.908.108-2.521,8.531-13.535h-4.18a24.718,24.718,0,0,0-3.526.253l-.361-1.225a29.413,29.413,0,0,0,3.888.252Z" transform="translate(-0.001 0)"/><path class="a" d="M30.475,196.415c1.512-2.808,1.728-3.023,1.944-3.023s.36.072,1.332,1.368c1.08,1.476,1.152,1.583,1.152,1.907s-.18.468-.612.468H30.475v3.24c0,11.662.18,15.01.18,16.773,0,1.044-.72,1.728-2.808,1.728-1.4,0-1.728-.216-1.728-1.4v-2.124h-4v2.016c0,1.224-1.116,1.656-2.808,1.656-1.44,0-1.656-.36-1.656-1.3,0-1.008.324-5.508.324-17.1v-3.492H16.292c.5.576.576.756.576,1.008,0,.324-.18.433-.72.433H10.5v7.163h.216c1.692-2.088,1.8-2.2,2.124-2.2.36,0,.576.108,2.2,1.548,1.116.972,1.332,1.26,1.332,1.584s-.072.432-1.08,1.26V209.8c0,2.735.18,5,.18,6.011,0,1.08-1.332,1.836-2.591,1.836-1.332,0-1.656-.324-1.656-1.512v-.828H5.89v1.656c0,1.115-.936,1.728-2.627,1.728-1.3,0-1.548-.18-1.548-1.4,0-.576.216-3.96.216-7.6,0-2.3,0-3.743-.108-5.507,2.771.684,4,1.151,4.427,1.548h.18v-7.163H4.378a22.5,22.5,0,0,0-3.636.252L.418,197.6a36.608,36.608,0,0,0,3.959.252H6.43v-2.52c0-1.619,0-2.627-.036-3.491-2.088.18-4.139.288-6.191.288-.216,0-.288-.36-.072-.4A44.032,44.032,0,0,0,11.29,187.3a6.262,6.262,0,0,0,1.116-.792c3.852,2.771,4.319,3.348,4.319,3.959,0,.576-.5.612-2.339.468-1.044.145-2.088.288-3.1.4a.322.322,0,0,1,.036.18c0,.36-.216.468-.828.792v5.543h1.152c1.908-2.843,2.052-2.879,2.3-2.879.288,0,.432.107,1.692,1.439h2.34a95.184,95.184,0,0,0-.288-10.331c4.5.612,5.615,1.044,5.615,1.513,0,.539-.324.791-1.188,1.295v7.523h4a86.22,86.22,0,0,0-.288-10.295c4.428.54,5.939.972,5.939,1.44s-.324.827-1.3,1.224ZM11.217,214.593v-8.135H6.357a2.932,2.932,0,0,1-.468.4V214.6Zm10.907-17.458v7.523h4v-7.523Zm4,17.494v-9.251h-4v9.251Z" transform="translate(-0.001 0)"/><path class="a" d="M3.658,254.444a8.227,8.227,0,0,1,1.26,4.716,2.8,2.8,0,0,1-2.556,2.987,1.746,1.746,0,0,1-1.98-1.764c0-.54.252-.972,1.188-1.872a5.236,5.236,0,0,0,1.656-4.067C3.226,254.229,3.55,254.265,3.658,254.444Zm9.287-23.757c1.224-1.656,1.332-1.728,1.584-1.728.216,0,.4.036,1.764,1.151,1.116.937,1.3,1.116,1.3,1.44,0,.252-.072.359-.972,1.115v3.1c0,2.735.216,5.4.216,6.3,0,1.188-.612,1.619-2.52,1.619-.792,0-.936-.252-.936-1.151V242.1h-2.7v4.176h1.188c1.836-2.231,2.016-2.412,2.268-2.412.324,0,.432.036,1.8,1.332.972.937,1.116,1.152,1.116,1.4s-.108.4-.36.4H10.677v2.7c2.124-.216,4.1-.468,6.3-.756a.171.171,0,0,1,.108.323,102.723,102.723,0,0,1-14,5c-.216.756-.468.972-.792.972-.54,0-.864-.576-1.872-4.968a23.038,23.038,0,0,0,2.34-.035c1.656-.072,3.1-.181,4.463-.252v-2.988H5.638a27.653,27.653,0,0,0-3.671.252l-.36-1.26a31.741,31.741,0,0,0,4.031.288H7.222V242.1H4.666v.9c0,1.044-.648,1.332-1.908,1.332-1.188,0-1.332-.145-1.332-1.044,0-.72.18-4,.18-8.892,0-2.987,0-4.067-.108-5.255,2.52.756,3.42,1.224,3.744,1.548Zm-8.279,3.06a4.029,4.029,0,0,1,2.879,3.1v-3.852c0-.468,0-1.044-.036-1.584H5.242a3.691,3.691,0,0,1-.576.4Zm0,7.631H7.545v-3.1a1.521,1.521,0,0,1-1.44,1.3c-.648,0-.972-.54-.972-1.187,0-.468.108-1.044.18-1.836a3.182,3.182,0,0,0-.648-2.3Zm4.571,17.386c0,1.656-.828,2.52-2.2,2.52a1.5,1.5,0,0,1-1.332-1.512c0-.468.072-.936.144-1.691a5.129,5.129,0,0,0-.72-3.852c-.144-.18.108-.252.324-.18a5.068,5.068,0,0,1,3.784,4.715Zm4.1-.468a1.871,1.871,0,0,1-1.836,2.088c-.972,0-1.476-.756-1.476-1.764a6.485,6.485,0,0,0-2.34-5.04c-.18-.144.072-.252.288-.216,4.036.865,5.368,2.88,5.368,4.936Zm.036-26.889h-2.48c-.036.216-.18.324-.54.576V238.5c.288-1.224.54-2.735.684-3.6.108-.611.144-1.043.216-1.691a12.8,12.8,0,0,1,2.124,1.152Zm0,9.971v-5.939c-.108.072-.252.181-.432.288-.72,1.08-1.476,2.2-2.592,3.888v1.764Zm3.923,15.8c0,1.116-.54,2.2-1.872,2.2-.72,0-1.4-.468-1.548-1.872a5.156,5.156,0,0,0-3.24-4.463c-.18-.108-.072-.288.144-.288,4.864.105,6.52,2.373,6.52,4.425Zm11.411-19.186c2.087-2.771,2.339-2.987,2.664-2.987.36,0,.72.252,2.124,1.656,1.152,1.151,1.332,1.367,1.332,1.655,0,.252-.18.4-.468.4h-7.6v8.423H28.1c1.62-2.124,1.8-2.232,2.124-2.232.432,0,.792.217,2.124,1.368,1.4,1.224,1.62,1.4,1.62,1.764s-.18.54-1.116,1.332V253c0,2.735.18,5.9.18,7.307,0,1.08-1.26,1.692-2.916,1.692-1.26,0-1.44-.181-1.44-1.368v-1.224H21.692v1.3c0,1.115-.612,1.728-2.664,1.728-1.3,0-1.4-.18-1.4-1.4,0-.575.18-4.427.18-9.935a53.28,53.28,0,0,0-.144-5.579c3.06.9,4.1,1.26,4.463,1.62h.54v-11.27a59.415,59.415,0,0,0-.252-7.02c5.075.36,5.615.828,5.615,1.368,0,.359-.252.611-1.26,1.08v6.694Zm-.036,20.7V247.857H22.124a1.585,1.585,0,0,1-.432.4V258.7Z" transform="translate(-0.001 0)"/><path class="a" d="M20.468,279.359c0-4.176-1.908-5.9-4.391-5.9-2.052,0-3.744,1.368-3.744,2.664a1.086,1.086,0,0,0,.54,1.008,2.762,2.762,0,0,1,1.224,2.123,2.56,2.56,0,0,1-2.736,2.7,2.627,2.627,0,0,1-2.7-2.771c0-3.456,4.14-6.7,8.783-6.7,5.327,0,8.459,2.808,8.459,6.8,0,3.06-1.116,4.968-5.615,8.531-2.736,2.16-3.276,2.987-3.276,4.968a4.5,4.5,0,0,0,.18,1.151.823.823,0,0,1-.828.684c-.252,0-.36-.18-.36-.432,0-3.959.288-5.075,1.944-7.487C19.928,283.787,20.468,282.239,20.468,279.359ZM19.5,300.417a2.934,2.934,0,1,1-2.916-2.916,2.934,2.934,0,0,1,2.916,2.916Z" transform="translate(-0.001 0)"/></g></g></svg>