<svg xmlns="http://www.w3.org/2000/svg" viewBox="0 0 88.937 307.152"><defs><style>.a{fill:#3f5d45;}</style></defs><g transform="translate(44.469 153.576)"><g transform="translate(-44.468 -153.576)"><path class="a" d="M82.318,20.626c1.512-1.62,1.656-1.656,1.944-1.656.36,0,.54.036,2.124,1.368,1.476,1.224,1.62,1.439,1.62,1.8s-.144.54-1.152,1.224c-.756,4.859-1.62,7.667-2.7,8.855a5.814,5.814,0,0,1-4.463,1.655c-.936,0-1.152-.144-1.332-.864-.4-1.583-.972-2.268-3.6-3.131-.216-.072-.216-.4,0-.4,1.944.036,2.772,0,3.852-.072a2.49,2.49,0,0,0,2.34-1.224,20.065,20.065,0,0,0,1.62-6.839H65.977c-4.067,4.283-7.847,6.911-11.338,8.1-.216.072-.324-.252-.144-.359,2.3-1.224,6.443-5,9.143-9.467A51.291,51.291,0,0,0,68.424,9.611H63.277a31.629,31.629,0,0,0-4.248.252L58.67,8.64a40.137,40.137,0,0,0,4.607.252h5.4c.4-1.3.792-2.628,1.116-4.032A27.836,27.836,0,0,0,70.656,0c5.4,1.656,5.976,2.16,5.976,2.7,0,.5-.36.9-1.692,1.151a51.772,51.772,0,0,1-1.656,5.04h2.268c1.548-1.62,1.8-1.729,2.052-1.729.324,0,.5.072,1.98,1.152,1.3.936,1.368,1.08,1.368,1.368s-.108.4-1.152,1.151c-.36,1.116-.864,2.664-1.368,4.067h.54c1.584-1.619,1.728-1.691,2.016-1.691.324,0,.612.144,1.943,1.188,1.224.972,1.368,1.116,1.368,1.4,0,.359-.144.5-1.044,1.079-.324,1.188-.72,2.412-1.116,3.744Zm-18,3.1a6.364,6.364,0,0,1,1.764,4.5c0,1.332-.9,3.239-2.844,3.239A2.1,2.1,0,0,1,60.9,29.444a2.273,2.273,0,0,1,1.043-1.907,4.472,4.472,0,0,0,2.088-3.708c0-.216.146-.288.29-.107Zm-2.2-22.5c3.744.18,5.939,2.052,5.939,4.139A2.671,2.671,0,0,1,65.5,8.245a1.947,1.947,0,0,1-2.052-2.124c0-2.339-.288-3.779-1.476-4.571-.173-.11-.064-.325.152-.325Zm8.063,14.4a32.671,32.671,0,0,1-3.527,5H77.7c.576-1.944,1.08-3.6,1.4-5ZM71.34,27.9a2.2,2.2,0,0,1-2.2,2.2,1.64,1.64,0,0,1-1.692-1.872c.216-2.3.072-3.672-.5-4.644-.108-.18-.036-.323.18-.252C70.188,24.189,71.34,26.313,71.34,27.9ZM73.032,9.611A52.4,52.4,0,0,1,70.584,14.9h3.492c.684-2.159,1.26-3.888,1.62-5.291ZM74.111,28.9a1.525,1.525,0,0,1-1.656-1.691c.036-1.584-.036-3.1-1.08-4.14-.144-.144-.072-.288.144-.252,3.167.5,4.679,2.124,4.679,4.067A2.1,2.1,0,0,1,74.111,28.9Zm1.764-6.335c-.18-.107-.108-.324.108-.288,3.023.288,4.931,1.4,4.931,3.6a2,2,0,0,1-1.908,1.944,1.6,1.6,0,0,1-1.764-1.548c-.107-1.58-.287-3.019-1.366-3.7Z" transform="translate(0 0)"/><path class="a" d="M60.325,56.519a31.861,31.861,0,0,1-5.867,5.22c-.18.108-.432-.144-.288-.288,2.592-2.916,5.58-8.783,7.919-15.622a19.527,19.527,0,0,0,.684-2.592c5.183,2.088,5.651,2.412,5.651,2.952s-.288.756-1.62,1.115a38.638,38.638,0,0,1-3.635,5.8c2.268.827,2.664,1.115,2.664,1.548,0,.323-.216.575-1.116.936v8.063c0,8.675.072,10.906.072,11.806,0,1.008-1.116,1.548-3.2,1.548C60.217,77,60,76.712,60,75.776s.144-3.384.216-8.387Zm21.525.36c2.556-3.42,2.7-3.527,3.06-3.527.4,0,.54.071,2.627,2.123,1.332,1.332,1.4,1.477,1.4,1.729s-.18.4-.468.4H79.007c0,10.763.18,16.954.18,17.89,0,1.044-.9,1.512-3.168,1.512-1.583,0-1.943-.144-1.943-1.3,0-.972.252-6.911.252-18.1H70.116c-.828,0-2.376.072-4.068.252l-.36-1.224c1.764.18,3.384.252,4.428.252h4.211c0-10.619-.036-11.734-.216-13.679,5.8.5,6.228.864,6.228,1.368,0,.4-.36.648-1.332,1.188V56.879Z" transform="translate(0 0)"/><path class="a" d="M69.216,96.3c0,4.644.108,7.486.108,7.955,0,.863-.72,1.26-2.16,1.26-1.044,0-1.224-.181-1.224-1.08,0-.288.072-2.412.108-5.724a2.27,2.27,0,0,1-.684.4c-.468,3.527-1.872,5.615-4.607,6.982a26.615,26.615,0,0,1-1.656,7.416,16.679,16.679,0,0,1-4.607,6.658.206.206,0,0,1-.288-.287,12.9,12.9,0,0,0,2.16-5.8c.54-3.1.684-6.587.684-13.714,0-5.651-.108-8.063-.36-10.942,4.031,1.008,5,1.3,5.183,1.691h7.7v-.9a24.086,24.086,0,0,0-.216-3.887c5.688.359,6.372.756,6.372,1.3,0,.432-.18.611-1.476,1.188v2.3h7.019c2.592-3.023,2.7-3.132,3.06-3.132s.54.072,2.447,1.872c1.224,1.151,1.3,1.3,1.3,1.62,0,.216-.108.359-.4.359H61.693a2.773,2.773,0,0,1-.684.432v7.344c0,2.375-.072,4.319-.216,6.011,1.152-1.4,1.656-3.888,1.656-6.911a10.442,10.442,0,0,0-.072-1.4,13.992,13.992,0,0,1,3.671.72V96.3h-.54a22.61,22.61,0,0,0-3.636.252l-.324-1.224a36.857,36.857,0,0,0,3.959.252h.54a20.835,20.835,0,0,0-.147-3.06c3.563.288,4.1.469,4.1.864,0,.324-.18.468-.792.792v1.4h.864c1.548-2.017,1.656-2.16,1.944-2.16s.36.036,1.512,1.08c.648.611.972.9,1.116,1.08h2.772a20.815,20.815,0,0,0-.144-3.061c3.671.288,4.211.469,4.211.864,0,.324-.18.468-.792.792v1.4h2.088c1.691-2.124,1.8-2.269,2.124-2.269.288,0,.5.108,1.764,1.26,1.08.973,1.188,1.152,1.188,1.4,0,.216-.108.324-.468.324H80.7c0,4.715.108,7.559.108,8.026,0,.864-.72,1.26-2.268,1.26-1.044,0-1.224-.18-1.224-1.079,0-.288.072-2.376.108-5.615a2.491,2.491,0,0,1-.432.216,8.177,8.177,0,0,1-4.14,6.191c2.16.575,2.448.791,2.448,1.151,0,.468-.4.684-1.8.9-1.152.791-2.2,1.548-3.312,2.3a2.948,2.948,0,0,1,1.3,2.411,2.487,2.487,0,0,1-2.52,2.448,1.739,1.739,0,0,1-1.872-1.261,6.137,6.137,0,0,0-3.563-4.247c-.216-.072-.144-.324.072-.36a12.374,12.374,0,0,1,4.9.217c.36-1.008.684-1.944,1.008-3.1a9.635,9.635,0,0,0,.252-1.26c.972.252,1.8.432,2.448.611,1.116-1.187,1.908-3.527,1.908-6.407a10.442,10.442,0,0,0-.072-1.4,19.3,19.3,0,0,1,3.384.611V96.3Zm17.89,21.093a2.652,2.652,0,0,1-2.7,2.7,2.1,2.1,0,0,1-2.124-1.836,9.892,9.892,0,0,0-.612-1.908c-6.047,1.116-9.971,1.765-18.538,3.132-.36.684-.5.828-.828.828-.468,0-.684-.288-2.2-5.4,1.152.072,1.62.108,2.879.144,3.06.072,5.8.145,8.5.145a54.54,54.54,0,0,0,4.14-6.731,16.877,16.877,0,0,0,.9-1.943c5.219,1.871,5.471,2.052,5.471,2.628,0,.468-.468.647-1.872.791-2.52,1.944-4.427,3.384-7.091,5.256,2.592,0,5.183-.036,8.027-.072a6.344,6.344,0,0,0-2.592-2.483.192.192,0,0,1,.108-.36c6.226.033,8.532,2.7,8.532,5.109ZM72.852,102.635c0,.792-.612,1.008-1.872,1.008-.72,0-.972-.288-.972-.864,0-.539.072-1.512.072-2.951,0-1.044,0-1.728-.036-2.376,3.132.36,3.492.5,3.492.864,0,.252-.108.359-.684.647Zm11.555-1.476c0,.5.072.611.792.611s.972-.071,1.3-.647a16.622,16.622,0,0,0,1.224-2.808c.072-.216.288-.145.252.072-.108,1.151-.144,1.979-.144,2.411a1.166,1.166,0,0,0,.4.936,1.593,1.593,0,0,1,.54,1.261c0,.827-.828,1.548-3.888,1.548-2.808,0-3.312-.54-3.312-1.3,0-.612.072-1.692.072-3.168,0-.972,0-1.764-.072-2.628,3.024.252,3.708.433,3.708.792,0,.288-.108.432-.864.792Z" transform="translate(0 0)"/><path class="a" d="M68.28,164.479v-36h1.152v36Z" transform="translate(0 0)"/><path class="a" d="M68.28,200.479v-36h1.152v36Z" transform="translate(0 0)"/><path class="a" d="M18.888,38.229c2.52,1.476,3.023,1.836,3.023,2.231,0,.5-.216.647-1.656.684a21.793,21.793,0,0,1-8.495,2.628,3.962,3.962,0,0,0,1.368.756c1.224.432,3.456.54,7.091.54a132.545,132.545,0,0,0,14.974-.9c.216-.036.288.252.108.4a5.023,5.023,0,0,0-2.124,3.312c-.108.828-.36,1.224-1.116,1.26-.936.108-2.556.18-7.919.18-8.207,0-9.971-.468-11.807-1.979a7.76,7.76,0,0,1-2.592-4.247A42.493,42.493,0,0,1,4.706,48.2c-.4.972-.648,1.26-1.044,1.26-.432,0-.972-.576-2.988-4.932a19.12,19.12,0,0,0,2.16-.647A29.078,29.078,0,0,0,6,42.513V32.362H4.418a16.461,16.461,0,0,0-3.2.252L.89,31.39a21.5,21.5,0,0,0,3.527.252H5.569c1.8-2.123,1.944-2.339,2.3-2.339.4,0,.54.071,1.764,1.151,1.62,1.4,1.764,1.584,1.764,2.052,0,.288-.18.468-1.152,1.26v8.5a6.611,6.611,0,0,0,1.152,1.26A14.929,14.929,0,0,0,17.232,38.8c.108-.18.216-.359.36-.575H15.684c-1.08,0-1.944.071-4.032.252l-.324-1.224a40.464,40.464,0,0,0,4.355.252h.648V34.018h-.18a22.6,22.6,0,0,0-3.635.252l-.324-1.224a36.871,36.871,0,0,0,3.959.252h.18c0-1.548-.036-2.34-.144-3.852,4.211.324,4.715.54,4.715,1.044,0,.324-.144.54-.9,1.008v1.8h3.276c0-1.548-.036-2.34-.144-3.852,4.211.288,4.715.54,4.715,1.044,0,.324-.144.54-.828,1.008v1.8h.9c1.908-2.412,1.98-2.447,2.232-2.447.288,0,.36.035,1.584,1.3,1.008,1.008,1.224,1.224,1.224,1.476a.351.351,0,0,1-.36.4h-5.58V37.51h1.728c1.979-2.484,2.052-2.556,2.34-2.556.324,0,.5.071,1.872,1.4,1.152,1.116,1.224,1.188,1.224,1.512,0,.216-.108.36-.4.36ZM3.626,17.532c4.536.5,6.659,2.627,6.659,4.931a2.472,2.472,0,0,1-2.735,2.7c-1.44,0-2.016-.937-2.124-2.7a6.072,6.072,0,0,0-2.088-4.571C3.158,17.748,3.41,17.5,3.626,17.532ZM15.4,19.3a29.4,29.4,0,0,0-3.887.252l-.36-1.224a35.9,35.9,0,0,0,4.248.252h1.548c1.224-1.4,1.332-1.477,1.584-1.477.324,0,.468.036,1.692,1.044.936.792,1.008.937,1.008,1.3,0,.288-.144.4-.828.972V21.1c0,.5.108,1.512.108,2.052,0,.72-.54,1.224-2.052,1.224-1.044,0-1.439-.4-1.439-1.008v-.756h-1.59a1.883,1.883,0,0,1-.5.288v2.268c0,.792.216,1.08,1.944,1.08,1.944,0,2.412-.324,3.312-1.44a9.88,9.88,0,0,0,1.368-2.268c.072-.144.324-.072.288.144a16.6,16.6,0,0,0-.36,2.232,2.044,2.044,0,0,0,.18.936,2.192,2.192,0,0,1,.468,1.26c0,1.188-.936,2.088-5.22,2.088-4.319,0-4.931-.647-4.931-2.268,0-.756.036-1.728.036-2.735,0-.685,0-1.908-.072-3.564,2.592.685,3.348,1.044,3.6,1.261h1.476V19.3ZM20,37.51h3.276V34.018H20ZM26.735,19.3a29.405,29.405,0,0,0-3.888.252l-.36-1.224a35.891,35.891,0,0,0,4.248.252h1.332c1.332-1.513,1.44-1.548,1.692-1.548.4,0,.54.035,1.728,1.079,1.008.864,1.08,1.008,1.08,1.332,0,.288-.072.4-.828.972V21.1c0,.5.108,1.512.108,2.052,0,.72-.756,1.224-2.268,1.224-1.008,0-1.368-.4-1.368-1.008v-.756h-1.62a1.883,1.883,0,0,1-.5.288v2.2c0,.792.216,1.08,1.764,1.08,2.34,0,3.023-.324,3.923-1.44a10.842,10.842,0,0,0,1.368-2.123c.108-.181.324-.072.288.144a11.432,11.432,0,0,0-.36,2.231A2.29,2.29,0,0,0,33.254,26a2.192,2.192,0,0,1,.468,1.26c0,1.188-.936,1.943-5.831,1.943-4.284,0-4.9-.647-4.9-2.268,0-.756.036-1.728.036-2.735,0-.685,0-1.908-.072-3.564,2.7.685,3.492,1.044,3.708,1.261h1.548V19.3ZM31.7,42.369A1.784,1.784,0,0,1,29.83,44.2c-.756,0-1.3-.252-2.087-1.331a10.6,10.6,0,0,0-4.644-3.6c-.216-.072-.108-.4.108-.4C30.01,38.77,31.7,40.893,31.7,42.369Z" transform="translate(0 0)"/><path class="a" d="M9.421,75.237c1.4-.36,2.7-.756,4.248-1.224a.2.2,0,0,1,.18.359c-1.548,1.152-3.06,2.3-4.427,3.348.036,8.6.18,10.259.18,11.411a3.8,3.8,0,0,1-1.764,3.491,4.531,4.531,0,0,1-2.448.756c-.576,0-.828-.216-1.008-.936-.324-1.225-1.008-2.268-3.239-3.023-.216-.072-.216-.36,0-.36,1.368-.072,2.16-.145,3.167-.288.828-.108,1.152-.612,1.152-1.8V80.133L3.878,81.248c-.288.828-.468,1.008-.828,1.008-.432,0-.576-.071-2.34-5.111.972-.144,1.944-.323,3.2-.611l1.548-.36V68.83h-.54a24.829,24.829,0,0,0-3.525.252l-.362-1.224a29.411,29.411,0,0,0,3.888.252h.54a56.575,56.575,0,0,0-.252-8.027c4.5.4,5.471.72,5.471,1.332,0,.432-.252.684-1.26,1.224v5.4C10.933,65.374,11,65.3,11.329,65.3c.288,0,.4.036,1.44,1.548.4.575.612.9.72,1.079.072-.9.144-2.268.144-3.851,0-1.332-.036-2.448-.144-3.636,2.7.54,3.671.863,4.032,1.151h10.87c1.368-1.584,1.476-1.691,1.8-1.691.288,0,.5.036,1.835,1.115,1.188.937,1.3,1.116,1.3,1.44,0,.288-.108.4-.972,1.115v.685c0,1.188.216,2.771.216,3.671,0,1.188-1.008,1.62-2.375,1.62-1.08,0-1.4-.252-1.4-1.116H16.944v.36c0,1.044-.756,1.332-2.34,1.332-1.008,0-1.152-.145-1.152-1.187v-.181a.507.507,0,0,1-.216.072H9.421Zm19.761,1.116c2.088-2.521,2.16-2.556,2.448-2.556.36,0,.468.035,1.764,1.331s1.332,1.368,1.332,1.62-.144.324-.36.324h-8.5c3.2,1.044,3.42,1.3,3.42,1.655s-.18.5-1.188.72c-1.4,1.261-2.16,1.944-2.952,2.664h3.636c2.124-2.592,2.2-2.628,2.52-2.628s.432.036,1.764,1.4c1.26,1.26,1.332,1.367,1.332,1.62s-.144.323-.36.323H25.115c0,.36-.108.5-.576.792v3.239h2.987c2.088-2.663,2.16-2.7,2.484-2.7s.432.036,1.836,1.476c1.224,1.26,1.3,1.368,1.3,1.62s-.144.324-.36.324H24.539c0,2.231.108,3.959.108,4.355,0,1.008-.756,1.583-3.023,1.583-1.26,0-1.44-.287-1.44-1.224,0-.5.144-2.447.144-4.715H16.8a22.6,22.6,0,0,0-3.635.252L12.841,86.6a36.615,36.615,0,0,0,3.959.252h3.528c0-1.8,0-3.06-.036-4.031h-4.32a22.609,22.609,0,0,0-3.636.252l-.324-1.224a36.863,36.863,0,0,0,3.959.252h2.664c-.828-.216-1.224-.864-1.188-2.016.036-1.476-.036-2.556-.828-3.023h-.792a22.609,22.609,0,0,0-3.636.252L11.869,76.1a36.863,36.863,0,0,0,3.959.252h4.463V72.97H17.664a27.653,27.653,0,0,0-3.671.252l-.36-1.26a31.753,31.753,0,0,0,4.031.288h2.628a26.922,26.922,0,0,0-.18-3.384c5.04.4,5.616.611,5.616,1.188,0,.4-.216.648-1.224,1.044V72.25h2.375C28.9,69.874,28.967,69.8,29.255,69.8s.432.072,1.8,1.44c1.044,1.043,1.188,1.151,1.188,1.4s-.108.324-.36.324H24.5V76.35ZM17.556,62.314a2.719,2.719,0,0,1-.612.433v4.967H18.78V63.971c0-.5,0-1.116-.036-1.656Zm6.155,19.8c.324-1.3.576-2.412.792-3.636a12.355,12.355,0,0,0,.18-1.4H17.628c2.808.468,3.635,1.764,3.635,3.06a1.96,1.96,0,0,1-1.439,1.979Zm-.036-18.142c0-.5,0-1.116-.036-1.656H22.415c0,.252-.144.36-.54.648v4.751h1.8Zm3.743-1.656c0,.252-.144.36-.54.648v4.751h1.908v-5.4Z" transform="translate(0 0)"/><path class="a" d="M23.459,106.127c2.268-2.3,2.448-2.412,2.808-2.412.432,0,.648.036,3.528,2.521,1.512,1.3,1.691,1.583,1.691,1.943,0,.576-.252.72-2.52,1.224-2.592,1.332-5.111,2.7-7.955,4.176.9.216,1.008.432,1.008.72,0,.4-.144.576-1.583,1.332V119.7c0,5.291.252,10.619.252,11.879a4.067,4.067,0,0,1-2.2,3.959,8.176,8.176,0,0,1-4,.9,1.132,1.132,0,0,1-1.224-.937c-.5-1.691-1.188-2.844-4-3.636-.216-.071-.216-.4,0-.4a30.753,30.753,0,0,0,4.715-.072c1.188-.144,1.584-.72,1.584-1.691v-9.646a49.208,49.208,0,0,0-.252-7.308c1.835.18,3.2.36,4.175.5,1.4-1.979,2.844-4.176,4.176-6.407H9.025c-1.26,0-2.556.072-4.607.252l-.36-1.224c2.375.18,3.708.252,4.967.252Z" transform="translate(0 0)"/><path class="a" d="M4.166,160.019A23.957,23.957,0,0,1,.35,164.446c-.18.144-.432-.108-.324-.288,1.836-2.844,3.888-8.531,5.436-15.514.18-.828.36-1.692.468-2.592,5.219,1.836,5.471,2.268,5.471,2.735,0,.432-.288.756-1.656,1.152a38,38,0,0,1-2.916,6.011c1.908.792,2.3,1.116,2.3,1.512,0,.324-.216.576-1.116.937v8.063c0,8.639.072,10.871.072,11.771,0,1.008-.9,1.548-2.664,1.548-1.368,0-1.584-.288-1.584-1.224s.144-3.384.216-8.747Zm9.683,12.6v2.52c0,.937-.72,1.44-2.375,1.44-1.332,0-1.476-.217-1.476-1.261,0-.611.252-3.887.252-8.351,0-2.771,0-3.455-.108-5.363a18.844,18.844,0,0,1,3.348,1.044v-7.055h-.54c-.648,0-1.8.071-3.491.252L9.1,154.62a28.766,28.766,0,0,0,3.852.252h.54v-2.016a61.929,61.929,0,0,0-.18-6.3c4.9.576,5.4.9,5.4,1.4,0,.36-.18.648-1.332,1.188v5.723h.18c1.476-2.34,1.548-2.375,1.8-2.375.288,0,.4.035,1.584,1.512.756.936.828,1.08.828,1.26,0,.216-.144.324-.4.324h-4v7.163c1.3-1.548,1.44-1.62,1.692-1.62.324,0,.432.036,1.943,1.4.9.828.972,1.008.972,1.26,0,.288-.144.4-.972.973v2.375c0,3.2.144,5.436.144,6.084,0,1.008-.972,1.439-2.771,1.439-.936,0-1.188-.252-1.188-1.187v-.864Zm3.348-.72v-8.352H14.28a1.637,1.637,0,0,1-.432.469V171.9Zm11.591-16.666c2.952.828,3.708,1.332,3.708,1.764,0,.324-.216.54-1.26.9a38.431,38.431,0,0,1-2.951,12.166,24.329,24.329,0,0,0,6.911,5.472c.18.107.144.323-.072.4a5.19,5.19,0,0,0-2.844,2.88c-.216.432-.432.72-.684.72a1.776,1.776,0,0,1-1.116-.5,20.92,20.92,0,0,1-4.571-5.22A19.693,19.693,0,0,1,15.4,180.32c-.216.036-.4-.288-.18-.36,3.563-1.476,6.947-4.823,9.143-9.286a44.8,44.8,0,0,1-1.188-12.635,19.384,19.384,0,0,1-2.7,3.384c-.144.144-.432-.072-.324-.252,1.224-2.232,2.268-6.407,2.916-12.778.072-.864.108-1.4.144-2.376,4.751,1.26,5.328,1.476,5.328,2.016,0,.432-.144.684-1.188,1.008a33.089,33.089,0,0,1-2.16,5.472H29.8c1.944-2.7,2.052-2.771,2.339-2.771.252,0,.432.035,1.8,1.439,1.08,1.08,1.26,1.3,1.26,1.656a.377.377,0,0,1-.4.4Zm-4,0c-.288.54-.576,1.044-.864,1.548a30.351,30.351,0,0,0,1.908,9.719A53.911,53.911,0,0,0,27.2,155.231Z" transform="translate(0 0)"/><path class="a" d="M30.91,200.194c1.512-2.808,1.728-3.023,1.944-3.023s.36.072,1.332,1.368c1.08,1.476,1.152,1.583,1.152,1.907s-.18.468-.612.468H30.91v3.24c0,11.662.18,15.01.18,16.773,0,1.044-.72,1.728-2.808,1.728-1.4,0-1.728-.216-1.728-1.4v-2.124h-4v2.016c0,1.224-1.116,1.656-2.808,1.656-1.44,0-1.656-.36-1.656-1.3,0-1.008.324-5.508.324-17.1v-3.492H16.728c.5.576.576.756.576,1.008,0,.324-.18.433-.72.433H10.933v7.163h.216c1.692-2.088,1.8-2.2,2.124-2.2.36,0,.576.108,2.2,1.548,1.116.972,1.332,1.26,1.332,1.584s-.072.432-1.08,1.26v1.872c0,2.735.18,5,.18,6.011,0,1.08-1.332,1.836-2.591,1.836-1.332,0-1.656-.324-1.656-1.512v-.828H6.325v1.656c0,1.115-.936,1.728-2.627,1.728-1.3,0-1.548-.18-1.548-1.4,0-.576.216-3.96.216-7.6,0-2.3,0-3.743-.108-5.507,2.771.684,4,1.151,4.427,1.548h.18v-7.163H4.814a22.5,22.5,0,0,0-3.636.252l-.324-1.225a36.6,36.6,0,0,0,3.959.252H6.865v-2.52c0-1.619,0-2.627-.036-3.491-2.088.18-4.139.288-6.191.288-.216,0-.288-.36-.072-.4a44.031,44.031,0,0,0,11.159-4.427,6.262,6.262,0,0,0,1.116-.792c3.852,2.771,4.319,3.348,4.319,3.959,0,.576-.5.612-2.339.468-1.044.145-2.088.288-3.1.4a.322.322,0,0,1,.036.18c0,.36-.216.468-.828.792v5.543h1.152c1.908-2.843,2.052-2.879,2.3-2.879.288,0,.432.107,1.692,1.439h2.34a95.185,95.185,0,0,0-.288-10.331c4.5.612,5.615,1.044,5.615,1.513,0,.539-.324.791-1.188,1.295v7.523h4a86.22,86.22,0,0,0-.288-10.3c4.428.54,5.939.972,5.939,1.44s-.324.827-1.3,1.224ZM11.652,218.372v-8.135H6.793a2.93,2.93,0,0,1-.468.4v7.739Zm10.907-17.458v7.523h4v-7.523Zm4,17.494v-9.251h-4v9.251Z" transform="translate(0 0)"/><path class="a" d="M4.094,258.224a8.227,8.227,0,0,1,1.26,4.716A2.8,2.8,0,0,1,2.8,265.927a1.746,1.746,0,0,1-1.98-1.764c0-.54.252-.972,1.188-1.872a5.236,5.236,0,0,0,1.656-4.067C3.662,258.008,3.985,258.044,4.094,258.224Zm9.287-23.757c1.224-1.656,1.332-1.728,1.584-1.728.216,0,.4.036,1.764,1.151,1.116.937,1.3,1.116,1.3,1.44,0,.252-.072.359-.972,1.115v3.1c0,2.735.216,5.4.216,6.3,0,1.188-.612,1.619-2.52,1.619-.792,0-.936-.252-.936-1.151v-.433h-2.7v4.176H12.3c1.836-2.231,2.016-2.412,2.268-2.412.324,0,.432.036,1.8,1.332.972.937,1.116,1.152,1.116,1.4s-.108.4-.36.4H11.113v2.7c2.124-.216,4.1-.468,6.3-.756a.171.171,0,0,1,.108.323,102.717,102.717,0,0,1-14,5c-.216.756-.468.972-.792.972-.54,0-.864-.576-1.872-4.968a23.043,23.043,0,0,0,2.34-.035c1.656-.072,3.1-.181,4.463-.252v-2.988H6.073a27.647,27.647,0,0,0-3.671.252l-.36-1.26a31.741,31.741,0,0,0,4.031.288H7.657v-4.176H5.1v.9c0,1.044-.648,1.332-1.908,1.332-1.188,0-1.332-.145-1.332-1.044,0-.72.18-4,.18-8.892,0-2.987,0-4.067-.108-5.255,2.52.756,3.42,1.224,3.744,1.548ZM5.1,237.526a4.029,4.029,0,0,1,2.879,3.1v-3.852c0-.468,0-1.044-.036-1.584H5.677a3.692,3.692,0,0,1-.576.4Zm0,7.631H7.981v-3.1a1.521,1.521,0,0,1-1.44,1.3c-.648,0-.972-.54-.972-1.187,0-.468.108-1.044.18-1.836a3.182,3.182,0,0,0-.648-2.3Zm4.571,17.386c0,1.656-.828,2.52-2.2,2.52a1.5,1.5,0,0,1-1.332-1.512c0-.468.072-.936.144-1.691a5.129,5.129,0,0,0-.72-3.852c-.144-.18.108-.252.324-.18a5.068,5.068,0,0,1,3.786,4.715Zm4.1-.468a1.871,1.871,0,0,1-1.836,2.088c-.972,0-1.476-.756-1.476-1.764a6.485,6.485,0,0,0-2.34-5.04c-.18-.144.072-.252.288-.216,4.037.865,5.369,2.88,5.369,4.932Zm.036-26.889H11.329c-.036.216-.18.324-.54.576v6.515c.288-1.224.54-2.735.684-3.6.108-.611.144-1.043.216-1.691a12.8,12.8,0,0,1,2.124,1.152Zm0,9.971v-5.939c-.108.072-.252.181-.432.288-.72,1.08-1.476,2.2-2.592,3.888v1.764Zm3.923,15.8c0,1.116-.54,2.2-1.872,2.2-.72,0-1.4-.468-1.548-1.872a5.156,5.156,0,0,0-3.24-4.463c-.18-.108-.072-.288.144-.288,4.866.106,6.522,2.373,6.522,4.425Zm11.411-19.186c2.087-2.771,2.339-2.987,2.664-2.987.36,0,.72.252,2.124,1.656,1.152,1.151,1.332,1.367,1.332,1.655,0,.252-.18.4-.468.4H27.2v8.423h1.332c1.62-2.124,1.8-2.232,2.124-2.232.432,0,.792.217,2.124,1.368,1.4,1.224,1.62,1.4,1.62,1.764s-.18.54-1.116,1.332v3.636c0,2.735.18,5.9.18,7.307,0,1.08-1.26,1.692-2.916,1.692-1.26,0-1.44-.181-1.44-1.368v-1.224h-6.98v1.3c0,1.115-.612,1.728-2.664,1.728-1.3,0-1.4-.18-1.4-1.4,0-.575.18-4.427.18-9.935A53.281,53.281,0,0,0,18.1,249.3c3.06.9,4.1,1.26,4.463,1.62h.54V239.65a59.415,59.415,0,0,0-.252-7.02c5.075.36,5.615.828,5.615,1.368,0,.359-.252.611-1.26,1.08v6.694Zm-.036,20.7V251.637H22.559a1.585,1.585,0,0,1-.432.4v10.439Z" transform="translate(0 0)"/><path class="a" d="M20.9,283.14c0-4.176-1.908-5.9-4.391-5.9-2.052,0-3.744,1.368-3.744,2.664a1.086,1.086,0,0,0,.54,1.008,2.762,2.762,0,0,1,1.224,2.123,2.56,2.56,0,0,1-2.736,2.7,2.627,2.627,0,0,1-2.7-2.771c0-3.456,4.14-6.7,8.783-6.7,5.327,0,8.459,2.808,8.459,6.8,0,3.06-1.116,4.968-5.615,8.531-2.736,2.16-3.276,2.987-3.276,4.968a4.5,4.5,0,0,0,.18,1.151.823.823,0,0,1-.828.684c-.252,0-.36-.18-.36-.432,0-3.959.288-5.075,1.944-7.487C20.363,287.567,20.9,286.02,20.9,283.14Zm-.968,21.06a2.934,2.934,0,1,1-2.916-2.916,2.934,2.934,0,0,1,2.916,2.916Z" transform="translate(0 0)"/></g></g></svg>