<svg xmlns="http://www.w3.org/2000/svg" viewBox="0 0 40 40"><defs><style>.a{fill:#eaf0ed;}</style></defs><g transform="translate(-937 -42)"><path class="a" d="M18,36A18,18,0,0,1,10.993,1.414,18,18,0,0,1,25.007,34.586,17.888,17.888,0,0,1,18,36ZM8.168,27.895a4.947,4.947,0,0,1,1.777.436,10,10,0,0,0,3.941.766,10.132,10.132,0,0,0,6.543-2.041,5.691,5.691,0,0,0-.063-9.248l-2.61-2.346C16.63,14.445,15.53,13.3,15.53,11.443c0-2.124,1.845-3.607,4.487-3.607a5.37,5.37,0,0,1,2.973.909,3.463,3.463,0,0,1,1.543,2.933,5.736,5.736,0,0,1-.242,1.65l-.022.08h.352l2.023-5.6-.44-.088a1.048,1.048,0,0,1-1.056.762,5.47,5.47,0,0,1-1.724-.4,9.833,9.833,0,0,0-3.408-.656,9.023,9.023,0,0,0-5.37,1.646,5.051,5.051,0,0,0-2.225,4.043c0,2.249,1.161,3.761,2.9,5.338l2.082,1.905a4.649,4.649,0,0,1,1.76,3.637,4.387,4.387,0,0,1-1.426,3.39,5.907,5.907,0,0,1-4,1.3,6.065,6.065,0,0,1-3.321-1.023,3.627,3.627,0,0,1-1.694-3.024A4.921,4.921,0,0,1,9.1,22.924l.005-.016H8.726L6.644,28.744l.41.088A1.161,1.161,0,0,1,8.168,27.895ZM26.584,17.8v0a3.727,3.727,0,0,1-.745,1.18l-.107.138c-.046.062-.094.125-.144.189a1.955,1.955,0,0,0-.541,1.131.789.789,0,0,0,.852.786.889.889,0,0,0,.919-.919,5.776,5.776,0,0,0-.088-.739l-.029-.2a4.156,4.156,0,0,1-.058-1.5l.007-.054a5.525,5.525,0,0,1,.787,1.554c.245.669.421,1.153,1.117,1.153a.905.905,0,0,0,.869-.935c0-.381-.259-.674-.769-.869a9.23,9.23,0,0,1-1.955-.952,4.856,4.856,0,0,1,.554-.031,9.087,9.087,0,0,1,1.2.1l.191.028a3.8,3.8,0,0,0,.544.055.847.847,0,0,0,.935-.869.918.918,0,0,0-.868-.919,2.176,2.176,0,0,0-1.237.718,3.788,3.788,0,0,1-1.337.852,4.105,4.105,0,0,1,.836-1.319c.045-.062.094-.124.143-.187a1.958,1.958,0,0,0,.542-1.133.789.789,0,0,0-.852-.785.889.889,0,0,0-.919.919,5.778,5.778,0,0,0,.088.738l.029.2a4.312,4.312,0,0,1,.067,1.553,5.621,5.621,0,0,1-.79-1.546c-.251-.674-.432-1.16-1.131-1.16a.905.905,0,0,0-.868.936c0,.382.259.674.769.868a8.851,8.851,0,0,1,1.955.952,4.89,4.89,0,0,1-.558.031,9.039,9.039,0,0,1-1.2-.1l-.2-.029a3.657,3.657,0,0,0-.537-.055.847.847,0,0,0-.935.868.918.918,0,0,0,.868.919,2.177,2.177,0,0,0,1.236-.718,3.93,3.93,0,0,1,1.352-.852Z" transform="translate(939 44)"/><path class="a" d="M20,40A20.005,20.005,0,0,1,12.215,1.572a20.005,20.005,0,0,1,15.57,36.857A19.875,19.875,0,0,1,20,40ZM20,.5a19.505,19.505,0,0,0-7.59,37.468A19.505,19.505,0,0,0,27.59,2.032,19.379,19.379,0,0,0,20,.5Z" transform="translate(937 42)"/></g></svg>