<svg xmlns="http://www.w3.org/2000/svg" viewBox="0 0 208.081 58.752"><defs><style>.a{fill:#3f5d45;}</style></defs><path class="a" d="M-67.056-8.664h4.1v.7c0,.624.192.816.936.816,1.3,0,2.04-.312,2.04-.984,0-.24-.1-1.9-.1-6.5v-2.4c.6-.552.672-.624.672-.84s-.072-.336-1.1-1.152c-1.008-.792-1.1-.84-1.368-.84-.216,0-.288.048-1.344,1.248H-66.6c-.168-.264-.888-.456-3.312-1.008.1,1.032.12,1.776.12,5.52,0,3.888-.12,6.12-.1,6.48.024.432.192.648.984.648,1.248,0,1.848-.36,1.848-1.032Zm4.1-6.36v2.64h-4.1v-2.64Zm0-3.12v2.64h-4.1v-2.472a1.254,1.254,0,0,0,.36-.168Zm-4.1,9V-11.9h4.1v2.76Zm-3.936,2.328c-.144,0-.192.144-.072.216a3.779,3.779,0,0,1,1.488,2.808A1.252,1.252,0,0,0-68.184-2.52,1.63,1.63,0,0,0-66.552-4.2C-66.552-5.52-67.728-6.84-70.992-6.816Zm-6.384.984A3.672,3.672,0,0,1-79.416-2.4,1.947,1.947,0,0,0-80.424-.7,1.584,1.584,0,0,0-78.768.888a2.6,2.6,0,0,0,2.544-2.76,9.339,9.339,0,0,0-.888-3.984C-77.184-5.976-77.376-5.976-77.376-5.832Zm3.792-10.248h3.216c.168,0,.24-.1.24-.264s-.048-.264-.744-1.008c-.816-.888-.864-.912-1.08-.912s-.288.048-1.416,1.7h-.216v-2.16c.768-.288.888-.5.888-.744,0-.408-.168-.552-3.576-.816.1,1.2.1,1.68.1,3.72h-1.8a21.148,21.148,0,0,1-2.688-.192l.24.84a18.422,18.422,0,0,1,2.448-.168h.912c-.552,2.448-2.472,6.12-4.128,7.416-.12.1.048.288.168.216a14.729,14.729,0,0,0,4.848-3.912v.456c-.072,2.712-.12,3.912-.12,4.368,0,.576.168.768,1.056.768,1.032,0,1.752-.288,1.752-.936,0-.408-.072-1.392-.1-6.528A3.244,3.244,0,0,1-72.6-11.9c.072.816.456,1.152,1.1,1.152a1.273,1.273,0,0,0,1.344-1.392c0-1.248-1.128-2.376-3.432-2.448Zm1.416,11.112c.576-.312.72-.456.72-.672,0-.312-.456-.576-3.672-.864a17.083,17.083,0,0,1,.144,2.352c0,.96-.048,2.76-.048,3.648,0,1.8.456,2.4,5.136,2.4,6.288,0,7.032-.816,7.032-1.872a1.577,1.577,0,0,0-.5-1.08,1.465,1.465,0,0,1-.456-1.128c0-.5.072-1.416.168-2.976,0-.144-.168-.168-.216-.024a8.658,8.658,0,0,1-1.8,3.36c-.7.7-1.392.96-4.08.96-2.184,0-2.424-.168-2.424-1.008Zm8.736-1.3a.119.119,0,0,0-.1.216,5.03,5.03,0,0,1,1.7,3.816c.1,1.08.72,1.632,1.536,1.632A1.786,1.786,0,0,0-58.44-2.568C-58.44-4.536-60.384-5.952-63.432-6.264Zm19.152-9.048c.648-.552.7-.624.7-.864,0-.216-.072-.336-.984-1.08-1.056-.864-1.128-.864-1.368-.864-.216,0-.312.072-1.272,1.32H-48.24c-.216-.288-.912-.624-3.192-1.2.1,1.392.1,2.736.1,5.5,0,3.456-.1,7.248-.1,7.92,0,.768.216.888.72.888,1.3,0,1.944-.312,1.944-1.032v-2.04h1.824v.528c0,.7.192.936.816.936,1.512,0,1.992-.432,1.992-1.176,0-.624-.144-2.376-.144-6.312Zm-4.488,8.064v-8.736a1.994,1.994,0,0,0,.528-.336h1.3v9.072Zm8.592-3.384a19.588,19.588,0,0,1-2.592-.168l.24.816a16.548,16.548,0,0,1,2.352-.168h2.784C-43.008-2.808-43.08-2.4-43.08-1.128c0,1.536.672,2.472,6.192,2.472,6.5,0,7.224-.792,7.224-1.92a2.182,2.182,0,0,0-.384-1.272A1.9,1.9,0,0,1-30.432-2.9c0-.312.024-.984.144-2.952,0-.144-.144-.192-.192-.048a10.013,10.013,0,0,1-1.9,3.672c-.552.552-1.512.84-4.056.84-3.5,0-3.6-.216-3.6-.744s.744-1.56,5.088-6.552c1.752-.888,1.776-.984,1.776-1.3,0-.216-.12-.384-1.2-1.32-.96-.816-1.1-.888-1.368-.888-.24,0-.336.048-1.7,1.56Zm.144-4.2a25.762,25.762,0,0,0,1.848-3.312c.912-.288,1.08-.408,1.08-.792,0-.288-.216-.528-4.056-1.416a15.955,15.955,0,0,1-.264,1.872,31.428,31.428,0,0,1-2.64,8.232c-.072.12.144.24.24.144a24.976,24.976,0,0,0,3.48-4.248H-29.76c.312,0,.408-.1.408-.312s-.12-.36-.936-1.176c-1.32-1.344-1.464-1.392-1.7-1.392s-.336.072-2.112,2.4ZM-3.264-18.24c.648-.264.864-.5.864-.816s-1.008-.6-3.96-.96a57.545,57.545,0,0,1,.192,6.864H-8.832v-5.016c.576-.336.792-.5.792-.864,0-.312-.744-.6-3.744-1.008a63.431,63.431,0,0,1,.192,6.888h-1.56c-.84-.888-.936-.96-1.128-.96-.168,0-.264.024-1.536,1.92h-.768v-3.7c.408-.216.552-.288.552-.528a.216.216,0,0,0-.024-.12c.672-.072,1.368-.168,2.064-.264,1.224.1,1.56.072,1.56-.312,0-.408-.312-.792-2.88-2.64a4.158,4.158,0,0,1-.744.528,29.359,29.359,0,0,1-7.44,2.952c-.144.024-.1.264.048.264,1.368,0,2.736-.072,4.128-.192.024.576.024,1.248.024,2.328v1.68h-1.368a24.53,24.53,0,0,1-2.64-.168l.216.816a15.061,15.061,0,0,1,2.424-.168H-19.3v4.776h-.12a8.528,8.528,0,0,0-2.952-1.032c.072,1.176.072,2.136.072,3.672,0,2.424-.144,4.68-.144,5.064,0,.816.168.936,1.032.936,1.128,0,1.752-.408,1.752-1.152v-1.1H-16.1V0c0,.792.216,1.008,1.1,1.008.84,0,1.728-.5,1.728-1.224,0-.672-.12-2.184-.12-4.008V-5.472c.672-.552.72-.624.72-.84s-.144-.408-.888-1.056c-1.08-.96-1.224-1.032-1.464-1.032-.216,0-.288.072-1.416,1.464h-.144v-4.776h3.768c.36,0,.48-.072.48-.288,0-.168-.048-.288-.384-.672h1.128v2.328c0,7.728-.216,10.728-.216,11.4,0,.624.144.864,1.1.864,1.128,0,1.872-.288,1.872-1.1V-.528h2.664V.888c0,.792.216.936,1.152.936,1.392,0,1.872-.456,1.872-1.152,0-1.176-.12-3.408-.12-11.184v-2.16H-.72c.288,0,.408-.1.408-.312s-.048-.288-.768-1.272c-.648-.864-.744-.912-.888-.912s-.288.144-1.3,2.016Zm-2.9,5.568v5.016H-8.832v-5.016ZM-8.832-1.008V-7.176h2.664v6.168Zm-10.824-.024v-5.16a1.948,1.948,0,0,0,.312-.264h3.24v5.424ZM7.368-3.264a3.492,3.492,0,0,1-1.1,2.712C5.64.048,5.472.336,5.472.7a1.164,1.164,0,0,0,1.32,1.176A1.868,1.868,0,0,0,8.5-.12a5.483,5.483,0,0,0-.84-3.144C7.584-3.384,7.368-3.408,7.368-3.264Zm1.488-.264c-.144-.048-.312,0-.216.12A3.42,3.42,0,0,1,9.12-.84c-.048.5-.1.816-.1,1.128A1,1,0,0,0,9.912,1.3c.912,0,1.464-.576,1.464-1.68A3.379,3.379,0,0,0,8.856-3.528Zm1.68-.456c-.144-.024-.312.048-.192.144A4.322,4.322,0,0,1,11.9-.48C11.9.192,12.24.7,12.888.7A1.248,1.248,0,0,0,14.112-.7C14.112-2.064,13.224-3.408,10.536-3.984Zm1.872-.408c-.144,0-.216.12-.1.192a3.438,3.438,0,0,1,2.16,2.976c.1.936.552,1.248,1.032,1.248.888,0,1.248-.72,1.248-1.464C16.752-2.808,15.648-4.32,12.408-4.392ZM8.712-19.1a7,7,0,0,0-2.5-1.032c.072.792.072,1.512.072,3.5,0,3.264-.12,5.448-.12,5.928,0,.6.1.7.888.7.84,0,1.272-.192,1.272-.888v-.6h1.7v2.784H8.976A21.149,21.149,0,0,1,6.288-8.9l.24.84a18.422,18.422,0,0,1,2.448-.168h1.056V-6.24c-.912.048-1.872.12-2.976.168a15.193,15.193,0,0,1-1.56.024c.672,2.928.888,3.312,1.248,3.312.216,0,.384-.144.528-.648A68.5,68.5,0,0,0,16.608-6.72a.114.114,0,0,0-.072-.216c-1.464.192-2.784.36-4.2.5v-1.8h4.008c.168,0,.24-.1.24-.264s-.1-.312-.744-.936c-.912-.864-.984-.888-1.2-.888-.168,0-.288.12-1.512,1.608h-.792V-11.5h1.8v.288c0,.6.1.768.624.768,1.272,0,1.68-.288,1.68-1.08,0-.6-.144-2.376-.144-4.2v-2.064c.6-.5.648-.576.648-.744,0-.216-.12-.336-.864-.96-.912-.744-1.032-.768-1.176-.768-.168,0-.24.048-1.056,1.152Zm3.408,7.128v-1.176c.744-1.128,1.248-1.872,1.728-2.592.12-.072.216-.144.288-.192v3.96ZM8.328-16.728a2.121,2.121,0,0,1,.432,1.536c-.048.528-.12.912-.12,1.224,0,.432.216.792.648.792a1.014,1.014,0,0,0,.96-.864v2.064H8.328Zm0-1.632a2.447,2.447,0,0,0,.384-.264h1.512c.024.36.024.744.024,1.056V-15a2.687,2.687,0,0,0-1.92-2.064Zm5.808,1.7a8.523,8.523,0,0,0-1.416-.768c-.048.432-.072.72-.144,1.128-.1.576-.264,1.584-.456,2.4V-18.24c.24-.168.336-.24.36-.384h1.656Zm8.928,2.424V-18.7c.672-.312.84-.48.84-.72,0-.36-.36-.672-3.744-.912a39.586,39.586,0,0,1,.168,4.68v7.512h-.36c-.24-.24-.936-.48-2.976-1.08a35.545,35.545,0,0,1,.1,3.72c0,3.672-.12,6.24-.12,6.624,0,.816.072.936.936.936,1.368,0,1.776-.408,1.776-1.152V.048h4.656V.864c0,.792.12.912.96.912,1.1,0,1.944-.408,1.944-1.128,0-.936-.12-3.048-.12-4.872V-6.648c.624-.528.744-.648.744-.888s-.144-.36-1.08-1.176c-.888-.768-1.128-.912-1.416-.912-.216,0-.336.072-1.416,1.488h-.888v-5.616h5.064c.192,0,.312-.1.312-.264,0-.192-.12-.336-.888-1.1-.936-.936-1.176-1.1-1.416-1.1-.216,0-.384.144-1.776,1.992ZM19.68-.432v-6.96a1.058,1.058,0,0,0,.288-.264h4.368V-.432Zm37.92-7.1h-24v.768h24Zm24,0h-24v.768h24ZM-104.52,23.736h7.152v.456c0,.7.168.84,1.128.84,1.416,0,2.136-.384,2.136-1.08,0-.432-.12-1.44-.12-3.528v-2.16c.576-.48.624-.528.624-.72,0-.216-.048-.312-1.08-1.08-1.224-.912-1.344-.936-1.584-.936-.264,0-.336.048-1.464,1.344h-6.36c-.168-.216-.816-.48-3.456-1.008.072.984.072,2.472.072,3.672,0,2.856-.072,4.776-.072,5.208,0,.6.216.768,1.056.768,1.368,0,1.968-.312,1.968-1.008Zm7.152-6.384v2.664h-7.152v-2.4a2.447,2.447,0,0,0,.384-.264Zm-7.152,5.9V20.5h7.152v2.76Zm5.448,7.872h6.96a.215.215,0,0,0,.24-.24c0-.216-.048-.264-.864-1.032-1.272-1.2-1.32-1.224-1.584-1.224-.216,0-.264.024-1.848,2.016h-2.9V27.24c.384-.192.5-.312.528-.48H-90.1a.234.234,0,0,0,.264-.24c0-.24-.072-.288-.936-1.1-1.32-1.272-1.392-1.272-1.632-1.272s-.288.024-1.944,2.136h-14.328c-.768,0-1.728-.048-2.976-.168l.24.816a21.306,21.306,0,0,1,2.736-.168h6.456c.072.84.072,1.584.072,2.472v5.016a8.4,8.4,0,0,1-1.464-.408,3.9,3.9,0,0,1-2.112-1.68,11.108,11.108,0,0,0,1.3-2.376c.816-.24.912-.336.912-.648,0-.336-.168-.456-3.7-1.656-.12.576-.216.96-.36,1.512-1.1,3.984-3.288,7.464-4.9,8.664-.12.1,0,.264.144.216a16.817,16.817,0,0,0,6.336-5.328,5.8,5.8,0,0,0,2.688,3.744c1.56,1.008,3.888,1.56,7.584,1.56a32.874,32.874,0,0,0,3.768-.072.708.708,0,0,0,.672-.624A3.6,3.6,0,0,1-89.4,34.464c.12-.072.1-.288-.048-.264a43.243,43.243,0,0,1-6.744.384c-1.1,0-2.064-.024-2.88-.048ZM-61.56,18.552c.192,0,.312-.1.312-.264s-.192-.432-1.08-1.224c-1.368-1.248-1.464-1.3-1.728-1.3-.24,0-.336.072-2.256,2.3H-79.224c-.84,0-1.8-.048-3.384-.168l.24.816c1.368-.12,2.3-.168,3.144-.168h7.464a16.149,16.149,0,0,1-.7,1.512c-2.352,4.656-7.632,10.608-11.136,12.72-.12.072.024.336.168.288a30.652,30.652,0,0,0,9.816-6.312v1.416c0,4.992-.12,8.4-.12,9.072,0,.72.312.912,1.224.912,1.392,0,2.184-.36,2.184-1.056,0-.816-.216-4.512-.216-8.928V24.72c.5-.264.576-.36.576-.6,0-.168-.072-.336-.7-.5a23.119,23.119,0,0,0,2.376-3.5c.744-.1,1.008-.288,1.008-.6,0-.24-.216-.552-2.064-.96Zm-7.848,5.208a.132.132,0,0,0-.1.24,12.621,12.621,0,0,1,4.968,6.552c.432,1.248.984,1.728,1.848,1.728,1.008,0,1.848-.72,1.848-2.184C-60.84,27.408-64.344,24.312-69.408,23.76Zm24.72-3.72c0,2.76-.144,5.04-.144,5.5,0,.528.264.768,1.224.768,1.56,0,2.016-.312,2.016-.888,0-.456-.12-2.712-.12-5.16V20.04h6.1a24,24,0,0,1-.624,2.64c-.048.144.048.216.168.144,1.2-.624,1.728-.936,2.184-1.176a2.594,2.594,0,0,1,1.152-.312c.648-.048.936-.24.936-.528,0-.408-.192-.72-1.1-1.488-1.368-1.152-1.632-1.248-1.848-1.248-.192,0-.36.12-1.584,1.488h-5.376V18c.336-.144.48-.264.48-.432h6.7c.168,0,.264-.072.264-.216,0-.168-.048-.312-.96-1.08-1.032-.888-1.128-.912-1.32-.912-.216,0-.36.048-1.68,1.728H-48.48c-.744,0-1.608-.048-2.856-.168l.24.816a24.876,24.876,0,0,1,2.616-.168h3.72a14,14,0,0,1,.072,1.992H-50.88a4.327,4.327,0,0,0-.792-1.44c-.1-.12-.24-.12-.24.024a2.859,2.859,0,0,1-1.56,2.448,1.723,1.723,0,0,0-.768,1.44A1.37,1.37,0,0,0-52.7,23.448c1.392,0,2.016-1.368,2.016-2.712a3.258,3.258,0,0,0-.072-.7Zm3.672,4.944c.744-.072,1.464-.1,1.944-.1H-34.8c.144,0,.216-.072.216-.24,0-.144-.048-.264-.6-.72-.84-.72-1.032-.768-1.128-.768-.168,0-.264.048-1.248,1.248h-1.512a18.127,18.127,0,0,1-2.136-.12Zm4.368-2.472a.191.191,0,0,0,.216-.216c0-.144-.048-.216-.6-.768-.648-.624-.768-.672-.888-.672s-.216.024-1.152,1.176h-.288a13.79,13.79,0,0,1-1.824-.12l.192.7c.744-.072,1.224-.1,1.632-.1ZM-51.48,24.984c.768-.072,1.464-.1,1.9-.1h4.032a.191.191,0,0,0,.216-.216c0-.144-.072-.312-.624-.816-.648-.6-.816-.648-.936-.648-.144,0-.216.048-1.152,1.2h-1.536a17.644,17.644,0,0,1-2.088-.12Zm5.856-2.472a.191.191,0,0,0,.216-.216c0-.144-.048-.288-.6-.768-.72-.648-.816-.672-.936-.672s-.216.024-1.152,1.176h-.312a17.01,17.01,0,0,1-2.064-.12l.192.7c.744-.072,1.464-.1,1.872-.1Zm-5.448,4.344c-.768,0-1.848-.048-3.1-.168l.24.816a23,23,0,0,1,2.856-.168h5.928c-.144.768-.312,1.44-.48,2.208h-2.664c-.216-.216-.936-.36-3.216-.792.072,1.152.1,1.944.1,3.048,0,2.256-.12,4.92-.12,5.448,0,.552.12.744.936.744,1.44,0,1.9-.336,1.9-.984,0-.384-.024-2.544-.024-5.712v-.912a3.75,3.75,0,0,0,.408-.36h1.488c.024.456.024.912.024,1.56,0,2.208-.072,4.8-.072,5.04,0,.6.12.768.864.768,1.488,0,1.968-.312,1.968-.888,0-.312-.072-2.76-.072-4.92v-1.32a.885.885,0,0,0,.264-.24h1.632c.024.432.024.936.024,1.584,0,2.136-.072,4.776-.072,5.016,0,.6.12.768.7.768,1.656,0,2.136-.312,2.136-.888V36a2.051,2.051,0,0,1,1.416,1.488c.1.408.216.576.6.576a4.546,4.546,0,0,0,1.464-.264,2.286,2.286,0,0,0,1.368-2.232c0-.312-.072-1.344-.072-3.5v-1.32c.6-.552.648-.648.648-.84,0-.216-.12-.336-.6-.672-1.416-.984-1.536-1.008-1.8-1.008-.24,0-.312.048-1.512,1.32H-44.3c.744-.552,1.3-.984,2.232-1.728.624-.12.744-.216.744-.48h9.168c.192,0,.264-.1.264-.216,0-.192-.1-.312-.96-1.1-.984-.888-1.176-1.008-1.368-1.008-.216,0-.36.144-1.848,1.848ZM-39.5,30.264c.144-.1.24-.144.264-.24h1.656v5.232a.4.4,0,0,1-.36.408,11.891,11.891,0,0,1-1.512.072c-.024-.96-.048-2.64-.048-4.128ZM-15.456,28.9c.36-.576.7-1.128,1.008-1.632C-13.56,27-13.3,26.808-13.3,26.5c0-.36-.408-.648-2.808-1.3h7.44v.312c0,.672.168.864,1.152.864,1.392,0,1.968-.432,1.968-1.1,0-.24-.12-1.728-.12-2.9v-.5c.648-.528.7-.6.7-.816,0-.24-.048-.312-.888-.96-1.152-.888-1.3-.936-1.536-.936-.216,0-.288.048-1.536,1.392H-10.8V18.312c.168-.12.336-.24.36-.36H-3.5a.23.23,0,0,0,.264-.264c0-.216-.072-.312-1.008-1.152C-5.4,15.5-5.472,15.48-5.712,15.48S-6,15.5-7.656,17.472H-21.5a37.754,37.754,0,0,1-3.888-.168l.216.816a33.059,33.059,0,0,1,3.672-.168h3.264v2.592h-1.584c-.144-.312-.792-.5-3.312-1.1.072.96.072,2.064.072,3.36,0,1.2-.1,2.688-.1,2.976,0,.7.168.84.936.84,1.272,0,1.872-.312,1.872-1.32v-.1H-16.8a10.283,10.283,0,0,1-.48,1.032c-.48.888-.984,1.776-1.56,2.664h-3.576a29.025,29.025,0,0,1-3.216-.168l.216.816a24.394,24.394,0,0,1,3-.168h3.264c-.792,1.224-1.7,2.472-2.784,3.864a.976.976,0,0,0-.264.528c0,.432.984.648,2.04.648a1.592,1.592,0,0,0,1.416-.7l.672-.96a22.286,22.286,0,0,1,3.1.984c-2.3,2.328-5.712,3.624-10.008,3.96-.144,0-.12.24.024.24,5.736.192,9.552-.792,12.288-3.1A18.174,18.174,0,0,1-9.288,37.2a2.457,2.457,0,0,0,1.824.84A1.6,1.6,0,0,0-5.9,36.576c0-.888-.384-1.392-1.368-2.016a11.294,11.294,0,0,0-3.744-1.44,18.108,18.108,0,0,0,1.488-2.3c.888-.264,1.056-.384,1.056-.672,0-.24-.264-.456-1.8-.768h6.84c.168,0,.264-.1.264-.288,0-.168-.12-.312-1.032-1.152-1.2-1.1-1.344-1.176-1.584-1.176s-.36.12-2.016,2.136Zm3.072.48a12.805,12.805,0,0,1-.576,1.464,9.378,9.378,0,0,1-1.056,1.776c-1.152-.12-2.4-.216-3.768-.264.7-.984,1.368-2.016,2.016-2.976Zm-7.968-8.016a3.389,3.389,0,0,0,.408-.336h1.7v3.7h-2.112Zm4.752-3.072c.168-.12.336-.24.36-.336h1.752v2.592H-15.6Zm6.936,2.736v3.7H-10.8v-3.7Zm-6.936,3.7v-3.7h2.112v3.7Zm24.264.192h2.808c.168,0,.264-.072.264-.216,0-.12-.048-.216-.744-.984-.744-.84-.816-.864-1.008-.864-.168,0-.216.048-1.32,1.584V18.888c.384-.168.552-.336.552-.552h2.4a.247.247,0,0,0,.264-.24c0-.144-.072-.216-.72-.888-.984-1.032-1.08-1.08-1.248-1.08s-.216.024-1.56,1.728H5.9a21.977,21.977,0,0,1-2.784-.168l.216.816a18.567,18.567,0,0,1,2.5-.168c.072.672.072,1.488.072,2.208v3.888a24.49,24.49,0,0,1-2.592-.168l.216.816A18.768,18.768,0,0,1,5.9,24.912V30.84l-1.392.192a10.6,10.6,0,0,1-1.536.072C4.2,34.9,4.464,35.112,4.848,35.112c.216,0,.432-.192.528-1.032A70.6,70.6,0,0,0,12.5,30c.12-.072.024-.288-.12-.264-1.2.264-2.448.48-3.72.7Zm10.68,11.664V32.184h5.5c.144,0,.24-.048.24-.216s-.048-.312-.912-1.1c-1.056-.984-1.272-1.1-1.464-1.1-.216,0-.36.144-1.776,1.944H19.344V27.288h1.848v.48c0,.744.192.888,1.032.888,1.464,0,1.968-.456,1.968-1.152,0-.528-.144-2.9-.144-5.784V18.888c.672-.576.768-.672.768-.888,0-.24-.072-.312-1.008-1.08-1.2-.96-1.32-1.008-1.584-1.008-.216,0-.312.048-1.368,1.176h-5.64c-.216-.24-.936-.456-3.192-.96.1,1.416.12,2.3.12,4.632,0,4.272-.12,7.008-.12,7.392,0,.744.216.888,1.1.888,1.152,0,1.656-.312,1.656-1.248v-.5h1.728V31.7H14.328a24.53,24.53,0,0,1-2.64-.168l.216.816a15.06,15.06,0,0,1,2.424-.168h2.184v4.392H11.328c-.7,0-1.776-.048-2.952-.168l.24.816c1.128-.12,2.16-.168,2.712-.168H25.752a.215.215,0,0,0,.24-.24c0-.216-.1-.336-1.008-1.152-1.176-1.056-1.32-1.1-1.512-1.1s-.264.048-1.776,2.016Zm-4.56-9.768V22.536h1.728v4.272Zm4.56-8.76c.288-.168.408-.336.432-.48h1.416v4.488H19.344Zm-2.88-.48c.024.336.048.7.048,1.2v3.288H14.784V17.928a1.438,1.438,0,0,0,.432-.36Zm2.88,9.24V22.536h1.848v4.272Zm25.224-5.3V17.5c.576-.312.816-.48.816-.72,0-.408-.312-.552-4.056-.864.072,1.32.1,2.9.1,5.52V21.5H37.512c-.216-.264-1.008-.576-3.6-1.1.1,1.3.12,2.856.12,6.48,0,5.256-.168,9.672-.168,10.32,0,.768.168.888,1.032.888,1.488,0,2.064-.456,2.064-1.152v-1.1H49.224v1.1c0,.72.144.888,1.224.888,1.392,0,2.064-.48,2.064-1.2,0-.624-.144-4.272-.144-9.384V22.92c.6-.408.72-.6.72-.792S52.9,21.72,52.1,21.1c-1.152-.888-1.416-1.032-1.632-1.032s-.312.072-1.584,1.44Zm0,13.848V28.464h4.656v6.888ZM36.96,28.464h4.464v6.888H36.96Zm4.464-.48H36.96V22.3a1.171,1.171,0,0,0,.528-.312h3.936Zm7.8-6v6H44.568v-6ZM70.3,22.8c.672-.528.72-.576.72-.792s-.072-.336-1.056-1.176c-.936-.816-1.032-.84-1.3-.84-.192,0-.288.072-1.272,1.272H64.8c.816-1.08,1.512-2.064,2.28-3.24.744-.216.936-.48.936-.72,0-.432-.48-.576-3.72-1.224,0,.672,0,1.008-.024,1.44-.072,1.248-.168,2.16-.288,3.36-.48-.168-1.2-.384-2.256-.672.12,1.848.1,3.576.1,7.272,0,2.928-.192,7.344-.192,7.992,0,.84.192.936,1.08.936,1.08,0,1.68-.336,1.68-1.08v-2.3h3.192V34.2c0,.816.168.936,1.056.936,1.224,0,1.824-.336,1.824-1.08,0-.6-.168-3.7-.168-8.64Zm-5.9,9.744V27.312h3.192v5.232Zm3.192-10.8v5.088H64.392v-4.7c.312-.168.456-.264.5-.384Zm7.944,9.24A1.834,1.834,0,0,0,77.4,28.92c0-1.752-1.416-3.48-4.56-3.912-.144-.024-.24.12-.12.216,1.056.888,1.3,2.112,1.392,3.984C74.184,30.456,74.688,30.984,75.528,30.984Zm-.624-10.2a24.517,24.517,0,0,0,1.536-2.928c.816-.24,1.008-.408,1.008-.672,0-.36-.192-.576-4.008-1.536-.048.648-.12,1.008-.216,1.632-.552,3.168-1.608,6.768-2.616,8.3-.072.12.072.288.192.192a20.843,20.843,0,0,0,3.816-4.512h4.9a85.2,85.2,0,0,1-.456,11.616c-.192,1.512-.7,1.848-1.464,1.9a30.954,30.954,0,0,1-3.456,0c-.144,0-.144.216,0,.264,1.8.48,2.472,1.152,2.832,2.448.12.456.24.576.744.576a3.8,3.8,0,0,0,4.152-3.288c.456-1.992.624-5.856.6-12.528.672-.552.768-.648.768-.888,0-.264-.072-.36-.768-.936-1.32-1.08-1.44-1.128-1.728-1.128-.264,0-.336.048-1.536,1.488ZM95.568,35.4a3.024,3.024,0,1,0-3.024,3A2.947,2.947,0,0,0,95.568,35.4Zm-.84,0a2.184,2.184,0,1,1-2.184-2.184A2.162,2.162,0,0,1,94.728,35.4Z" transform="translate(112.513 20.352)"/></svg>