<svg xmlns="http://www.w3.org/2000/svg" viewBox="0 0 94.222 31.014"><defs><style>.a{fill:#8da291;}</style></defs><path class="a" d="M-9162.068-527.442l2.962-1.233a4.283,4.283,0,0,0,3.9,2.749c2.555,0,4.138-1.576,4.138-4.543v-1.115h-.12a5.276,5.276,0,0,1-4.08,1.761,7.671,7.671,0,0,1-7.426-7.718,7.7,7.7,0,0,1,7.426-7.778,5.368,5.368,0,0,1,4.08,1.731h.12v-1.261h3.23v13.913c0,5.723-3.374,8.06-7.366,8.06A7.38,7.38,0,0,1-9162.068-527.442Zm2.791-10.1a4.448,4.448,0,0,0,4.315,4.668c2.316,0,4.138-1.967,4.138-4.668,0-2.731-1.821-4.726-4.138-4.726A4.481,4.481,0,0,0-9159.277-537.541Zm-20.18-.028a7.637,7.637,0,0,1,7.775-7.75,7.635,7.635,0,0,1,7.775,7.75,7.655,7.655,0,0,1-7.775,7.75A7.656,7.656,0,0,1-9179.457-537.569Zm3.4,0a4.479,4.479,0,0,0,4.371,4.7,4.483,4.483,0,0,0,4.372-4.7,4.465,4.465,0,0,0-4.372-4.7A4.464,4.464,0,0,0-9176.053-537.569Zm-20.175,0a7.634,7.634,0,0,1,7.773-7.75,7.636,7.636,0,0,1,7.775,7.75,7.656,7.656,0,0,1-7.775,7.75A7.654,7.654,0,0,1-9196.228-537.569Zm3.4,0a4.481,4.481,0,0,0,4.372,4.7,4.482,4.482,0,0,0,4.371-4.7,4.464,4.464,0,0,0-4.371-4.7A4.466,4.466,0,0,0-9192.826-537.569Zm51.752,0c0-4.61,3.316-7.75,7.311-7.75a7.194,7.194,0,0,1,6.63,4.931l.354.879-10.361,4.29a3.944,3.944,0,0,0,3.757,2.349,4.423,4.423,0,0,0,3.815-2.145l2.641,1.761a7.711,7.711,0,0,1-6.456,3.434A7.581,7.581,0,0,1-9141.074-537.574Zm3.374-.234,6.927-2.877a3,3,0,0,0-2.877-1.641A4.25,4.25,0,0,0-9137.7-537.808Zm-83.3-4.05a12.2,12.2,0,0,1,12.21-12.034,11.459,11.459,0,0,1,8.245,3.316l-2.319,2.319a8.379,8.379,0,0,0-5.931-2.347,8.631,8.631,0,0,0-8.63,8.745,8.631,8.631,0,0,0,8.63,8.745,8.06,8.06,0,0,0,6.079-2.407,6.819,6.819,0,0,0,1.779-4.071l-7.858,0v-3.286h11.082a11.032,11.032,0,0,1,.165,1.983,10.869,10.869,0,0,1-2.849,7.692,11.007,11.007,0,0,1-8.394,3.374A12.2,12.2,0,0,1-9221-541.857Zm75.178,11.562v-22.711h3.318V-530.3ZM-9147.834-544.85Zm0,0v0Z" transform="translate(9221.002 553.891)"/></svg>