<svg xmlns="http://www.w3.org/2000/svg" viewBox="0 0 89.097 327.785"><defs><style>.a{fill:#3f5d45;}</style></defs><g transform="translate(44.549 163.893)"><g transform="translate(-44.549 -163.893)"><path class="a" d="M65.592,8.53c3.456.108,5.147,1.8,5.147,3.672a1.908,1.908,0,0,1-2.016,2.088c-.972,0-1.548-.5-1.656-1.728A4.868,4.868,0,0,0,65.592,9.07c.036,7.7.144,9.18.144,9.791,0,.972-1.08,1.4-2.628,1.4-1.332,0-1.583-.288-1.583-1.152,0-.684.072-2.483.18-6.551v-.685a22.085,22.085,0,0,1-7.271,5.867c-.18.108-.432-.18-.252-.323,2.484-1.944,5.363-7.451,6.191-11.123H59.005a27.657,27.657,0,0,0-3.672.252l-.36-1.26a31.756,31.756,0,0,0,4.032.288h2.7c0-3.06,0-3.779-.144-5.579,5.111.4,5.363.611,5.363,1.224,0,.36-.18.684-1.332,1.116V5.579h.324c1.691-2.483,1.8-2.556,2.124-2.556s.4.036,1.62,1.368c1.04,1.116,1.116,1.26,1.116,1.509s-.108.4-.36.4H65.592ZM60.3,21.633a14.006,14.006,0,0,1,1.332,5.976,3.9,3.9,0,0,1-3.815,4.14,2.377,2.377,0,0,1-2.484-2.376,2.921,2.921,0,0,1,1.512-2.556A5.507,5.507,0,0,0,59.9,21.67C59.9,21.453,60.193,21.453,60.3,21.633Zm7.415,5.976c0,1.26.36,1.512,3.636,1.512,4.032,0,5.075-.4,6.119-1.439.972-.973,1.728-2.34,2.7-5.04.072-.216.324-.18.324.036-.144,2.34-.252,3.708-.252,4.464a2.2,2.2,0,0,0,.684,1.691,2.364,2.364,0,0,1,.756,1.62c0,1.584-1.116,2.808-10.546,2.808-7.019,0-7.7-.9-7.7-3.6,0-1.332.072-4.031.072-5.472a25.594,25.594,0,0,0-.216-3.527c4.823.432,5.507.828,5.507,1.3,0,.324-.216.54-1.08,1.008Zm8.423-3.491a2.444,2.444,0,0,1-2.448,2.52,1.878,1.878,0,0,1-2.09-1.909c-.324-2.088-1.008-3.384-2.231-4.211-.18-.108-.108-.324.108-.324,4.9-.037,6.662,1.943,6.662,3.923Zm-.756-5.724c0,1.008-.9,1.548-2.772,1.548-1.188,0-1.44-.324-1.476-.972-.036-.54.144-3.888.144-9.719,0-5.615-.036-6.731-.18-8.279,3.636.828,4.715,1.116,4.967,1.512h5.076C82.726.684,82.834.611,83.158.611c.4,0,.54.072,2.052,1.261,1.548,1.224,1.656,1.4,1.656,1.728s-.108.432-1.008,1.26v3.6c0,6.911.144,9.4.144,9.755,0,1.008-1.116,1.476-3.06,1.476-1.116,0-1.4-.288-1.4-1.224V17.422H75.383Zm.54-15.19a1.852,1.852,0,0,1-.54.252V7.163h6.155V3.2Zm-.54,4.68v3.96h6.155V7.883ZM81.538,16.7V12.56H75.383V16.7Zm6.768,9.862a2.679,2.679,0,0,1-2.772,2.952c-1.224,0-2.16-.828-2.3-2.448-.252-2.664-.972-4.5-2.556-5.724a.178.178,0,0,1,.144-.323c4.568.47,7.484,2.594,7.484,5.545Z" transform="translate(-0.001 0.005)"/><path class="a" d="M66.348,54.432c0,5.9.216,8.531.216,9.467,0,1.116-.72,1.764-2.987,1.764-.936,0-1.224-.36-1.224-1.4v-.792H59.617v3.06c0,1.079-.972,1.548-2.916,1.548-.756,0-1.08-.181-1.08-1.332,0-1.008.144-6.7.144-11.879,0-4.14,0-6.155-.144-8.243,3.419.864,4.463,1.368,4.788,1.8h1.547c1.44-1.871,1.584-1.979,1.908-1.979.36,0,.468,0,2.052,1.3,1.368,1.116,1.476,1.3,1.476,1.62,0,.359-.072.468-1.044,1.3Zm-4,8.314v-13.6H60.409a3,3,0,0,1-.792.5v13.1ZM81.61,51.372c2.664-3.491,2.808-3.6,3.167-3.6s.576.072,2.556,2.088c1.224,1.224,1.4,1.439,1.4,1.764s-.144.468-.612.468H72.251a37.461,37.461,0,0,1-5.219,6.371c-.144.145-.468-.036-.36-.216,1.152-1.908,3.06-7.415,3.959-12.347a24.074,24.074,0,0,0,.4-2.808c5.759,1.332,6.083,1.692,6.083,2.124,0,.576-.252.756-1.62,1.188a38.674,38.674,0,0,1-2.772,4.968Zm-5,6.3c2.052-2.268,2.2-2.34,2.556-2.34.4,0,.612.108,2.052,1.332,1.62,1.4,1.8,1.656,1.8,1.98,0,.468-.036.611-2.664,1.943-6.515,7.487-7.631,9.035-7.631,9.827s.144,1.115,5.4,1.115c3.815,0,5.255-.432,6.083-1.26a15.023,15.023,0,0,0,2.843-5.507c.072-.217.288-.145.288.071-.18,2.952-.216,3.96-.216,4.428a2.858,2.858,0,0,0,.576,1.584,3.269,3.269,0,0,1,.576,1.907c0,1.692-1.08,2.88-10.834,2.88-8.279,0-9.287-1.4-9.287-3.707,0-1.908.108-2.521,8.531-13.535H72.5a24.719,24.719,0,0,0-3.526.253l-.361-1.225a29.411,29.411,0,0,0,3.888.252Z" transform="translate(-0.001 0.005)"/><path class="a" d="M84.67,97.092c1.512-2.808,1.728-3.023,1.944-3.023s.36.072,1.332,1.368c1.08,1.476,1.152,1.583,1.152,1.907s-.18.468-.612.468H84.67v3.24c0,11.662.18,15.01.18,16.773,0,1.044-.72,1.728-2.808,1.728-1.4,0-1.728-.216-1.728-1.4v-2.124h-4v2.016c0,1.224-1.116,1.656-2.808,1.656-1.44,0-1.656-.36-1.656-1.3,0-1.008.324-5.508.324-17.1V97.812H70.488c.5.576.576.756.576,1.008,0,.324-.18.433-.72.433H64.692v7.163h.216c1.692-2.088,1.8-2.2,2.124-2.2.36,0,.576.108,2.2,1.548,1.116.972,1.332,1.26,1.332,1.584s-.072.432-1.08,1.26v1.872c0,2.735.18,5,.18,6.011,0,1.08-1.332,1.836-2.591,1.836-1.332,0-1.656-.324-1.656-1.512v-.828H60.085v1.656c0,1.115-.936,1.728-2.627,1.728-1.3,0-1.548-.18-1.548-1.4,0-.576.216-3.96.216-7.6,0-2.3,0-3.743-.108-5.507,2.771.684,4,1.151,4.427,1.548h.18v-7.16H58.573a22.5,22.5,0,0,0-3.636.252l-.324-1.225a36.61,36.61,0,0,0,3.959.252h2.052v-2.52c0-1.619,0-2.627-.036-3.491-2.088.18-4.139.288-6.191.288-.216,0-.288-.36-.072-.4a44.032,44.032,0,0,0,11.159-4.427,6.261,6.261,0,0,0,1.116-.792c3.852,2.771,4.319,3.348,4.319,3.959,0,.576-.5.612-2.339.468-1.044.145-2.088.288-3.1.4a.322.322,0,0,1,.036.18c0,.36-.216.468-.828.792v5.543H65.84c1.908-2.843,2.052-2.879,2.3-2.879.288,0,.432.107,1.692,1.439h2.34a95.187,95.187,0,0,0-.288-10.331c4.5.612,5.615,1.044,5.615,1.513,0,.539-.324.791-1.188,1.295v7.523h4A86.22,86.22,0,0,0,80.026,86.8c4.428.54,5.939.972,5.939,1.44s-.324.827-1.3,1.224ZM65.412,115.27v-8.135H60.553a2.931,2.931,0,0,1-.468.4v7.739ZM76.319,97.812v7.523h4V97.812Zm4,17.494v-9.251h-4v9.251Z" transform="translate(-0.001 0.005)"/><path class="a" d="M57.854,155.12a8.227,8.227,0,0,1,1.26,4.716,2.8,2.8,0,0,1-2.556,2.987,1.746,1.746,0,0,1-1.98-1.764c0-.54.252-.972,1.188-1.872a5.236,5.236,0,0,0,1.656-4.067C57.421,154.9,57.745,154.94,57.854,155.12Zm9.287-23.757c1.224-1.656,1.332-1.728,1.584-1.728.216,0,.4.036,1.764,1.151,1.116.937,1.3,1.116,1.3,1.44,0,.252-.072.359-.972,1.115v3.1c0,2.735.216,5.4.216,6.3,0,1.188-.612,1.62-2.52,1.62-.792,0-.936-.252-.936-1.151v-.433h-2.7v4.176H66.06c1.836-2.231,2.016-2.412,2.268-2.412.324,0,.432.036,1.8,1.332.972.937,1.116,1.152,1.116,1.4s-.108.4-.36.4H64.873v2.7c2.124-.216,4.1-.468,6.3-.756a.171.171,0,0,1,.108.323,102.719,102.719,0,0,1-14,5c-.216.756-.468.972-.792.972-.54,0-.864-.576-1.872-4.968a23.038,23.038,0,0,0,2.34-.035c1.656-.072,3.1-.181,4.463-.252v-2.988H59.833a27.653,27.653,0,0,0-3.671.252l-.36-1.26a31.741,31.741,0,0,0,4.031.288h1.584v-4.176H58.861v.9c0,1.044-.648,1.332-1.908,1.332-1.188,0-1.332-.145-1.332-1.044,0-.72.18-4,.18-8.892,0-2.987,0-4.067-.108-5.255,2.52.756,3.42,1.224,3.744,1.548Zm-8.279,3.06a4.029,4.029,0,0,1,2.879,3.1v-3.852c0-.468,0-1.044-.036-1.584H59.437a3.693,3.693,0,0,1-.576.4Zm0,7.631h2.879v-3.1a1.521,1.521,0,0,1-1.44,1.3c-.648,0-.972-.54-.972-1.187,0-.468.108-1.044.18-1.836a3.182,3.182,0,0,0-.648-2.3Zm4.571,17.386c0,1.656-.828,2.52-2.2,2.52a1.5,1.5,0,0,1-1.332-1.512c0-.468.072-.936.144-1.691a5.129,5.129,0,0,0-.72-3.852c-.144-.18.108-.252.324-.18a5.068,5.068,0,0,1,3.784,4.714Zm4.1-.468A1.871,1.871,0,0,1,65.7,161.06c-.972,0-1.476-.756-1.476-1.764a6.481,6.481,0,0,0-2.34-5.039c-.18-.145.072-.253.288-.217,4.028.86,5.364,2.88,5.364,4.932Zm.036-26.889H65.088c-.036.216-.18.324-.54.576v6.515c.288-1.224.54-2.735.684-3.6.108-.611.144-1.043.216-1.691a12.8,12.8,0,0,1,2.124,1.152Zm0,9.971v-5.939c-.108.072-.252.181-.432.288-.72,1.08-1.476,2.2-2.592,3.888v1.764Zm3.923,15.8c0,1.116-.54,2.2-1.872,2.2-.72,0-1.4-.468-1.548-1.872a5.156,5.156,0,0,0-3.24-4.463c-.18-.108-.072-.288.144-.288,4.864.105,6.524,2.369,6.524,4.424ZM82.906,138.67c2.087-2.771,2.339-2.987,2.664-2.987.36,0,.72.252,2.124,1.656,1.152,1.151,1.332,1.367,1.332,1.655,0,.252-.18.4-.468.4h-7.6v8.423H82.29c1.62-2.124,1.8-2.232,2.124-2.232.432,0,.792.217,2.124,1.368,1.4,1.224,1.62,1.4,1.62,1.764s-.18.54-1.116,1.332v3.636c0,2.735.18,5.9.18,7.307,0,1.08-1.26,1.692-2.916,1.692-1.26,0-1.44-.181-1.44-1.368v-1.224H75.887v1.3c0,1.115-.612,1.728-2.664,1.728-1.3,0-1.4-.18-1.4-1.4,0-.575.18-4.427.18-9.935a53.281,53.281,0,0,0-.144-5.579c3.06.9,4.1,1.26,4.463,1.62h.54V136.547a59.417,59.417,0,0,0-.252-7.02c5.075.36,5.615.828,5.615,1.368,0,.359-.252.611-1.26,1.08v6.694Zm-.036,20.7V148.533H76.319a1.585,1.585,0,0,1-.432.4v10.439Z" transform="translate(-0.001 0.005)"/><path class="a" d="M68.04,207.536v-36h1.152v36Z" transform="translate(-0.001 0.005)"/><path class="a" d="M68.04,243.536v-36h1.152v36Z" transform="translate(-0.001 0.005)"/><path class="a" d="M20.159,44.781c1.224.035,2.664.071,4.319.071a64.95,64.95,0,0,0,10.115-.575c.216-.036.252.287.072.4A5.394,5.394,0,0,0,31.858,48.7a1.062,1.062,0,0,1-1.008.937,49.678,49.678,0,0,1-5.651.107c-5.543,0-9.035-.828-11.375-2.34a8.7,8.7,0,0,1-4.032-5.615,25.214,25.214,0,0,1-9.5,7.991c-.216.072-.4-.18-.216-.324,2.412-1.8,5.688-7.019,7.343-12.994.216-.828.36-1.4.54-2.268C13.248,36,13.5,36.178,13.5,36.682c0,.468-.144.612-1.368.972a16.667,16.667,0,0,1-1.944,3.564,5.849,5.849,0,0,0,3.167,2.52,12.593,12.593,0,0,0,2.2.611V36.826c0-1.332,0-2.448-.108-3.708H5.761a31.981,31.981,0,0,0-4.1.252L1.3,32.146c1.872.18,3.312.252,4.464.252H27.251c2.483-3.168,2.556-3.2,2.916-3.2s.468,0,2.448,1.908c1.3,1.224,1.4,1.3,1.4,1.656a.351.351,0,0,1-.4.359H20.951c-.036.252-.216.432-.792.72v5.111h4.355c2.376-2.987,2.448-3.023,2.771-3.023.4,0,.468.036,2.376,1.836,1.224,1.151,1.3,1.224,1.3,1.548a.323.323,0,0,1-.36.36H20.159ZM11.988,29.734c0,1.044-.9,1.512-2.952,1.512-1.26,0-1.584-.252-1.584-1.151,0-.648.108-3.527.108-7.812,0-1.8,0-4.031-.108-5.507,3.959.792,4.932,1.188,5.184,1.512h9.539c1.692-1.943,1.8-2.016,2.2-2.016.36,0,.54.036,2.376,1.4,1.548,1.152,1.62,1.3,1.62,1.62,0,.288-.072.36-.936,1.08v3.239c0,3.132.18,4.644.18,5.292,0,1.044-1.08,1.619-3.2,1.619-1.44,0-1.692-.216-1.692-1.26v-.684H11.988Zm.576-10.727a3.667,3.667,0,0,1-.576.4V23H22.715V19Zm10.151,8.855v-4.14H11.988v4.14Z" transform="translate(-0.001 0.005)"/><path class="a" d="M21.563,64.007c2.771.612,3.1,1.08,3.1,1.44,0,.468-.4.756-1.512.9A34.737,34.737,0,0,1,19.584,71.6c.936.252,1.043.5,1.043.756,0,.359-.108.5-.864.9V78.44c0,6.623.324,12.166.324,13.391,0,1.043-1.188,1.583-3.276,1.583-1.368,0-1.835-.288-1.835-1.367,0-1.008.18-6.119.18-13.606V76.317A45.972,45.972,0,0,1,.434,85.784c-.216.072-.432-.324-.252-.432,5.255-3.168,13.174-12.1,16.7-19.078a24.264,24.264,0,0,0,1.044-2.268H6.733c-1.26,0-2.664.072-4.715.252l-.36-1.224c2.375.18,3.815.252,5.075.252H26.1c2.879-3.348,3.023-3.455,3.383-3.455.4,0,.54.071,2.592,1.943,1.332,1.188,1.62,1.584,1.62,1.836s-.18.4-.468.4ZM34.306,81.321c0,2.2-1.26,3.275-2.772,3.275-1.3,0-2.124-.72-2.771-2.592-1.332-3.888-4.14-7.883-7.451-9.827a.2.2,0,0,1,.144-.359C29.05,72.646,34.306,77.289,34.306,81.321Z" transform="translate(-0.001 0.005)"/><path class="a" d="M6.229,109.439a4.891,4.891,0,0,1,.108,1.043c0,2.017-.936,4.068-3.023,4.068a2.055,2.055,0,0,1-2.3-2.124,2.585,2.585,0,0,1,1.152-2.16C3.71,109.151,4.5,108.215,4.5,106.6c0-.217.216-.217.36-.036a6.49,6.49,0,0,1,1.188,2.159h9.287a21.007,21.007,0,0,0-.108-2.987H9.648a37.386,37.386,0,0,0-3.923.252l-.36-1.224c1.872.18,3.167.252,4.283.252h15.37c1.98-2.52,2.2-2.592,2.52-2.592.288,0,.432.036,1.98,1.368,1.368,1.151,1.44,1.367,1.44,1.619,0,.216-.144.324-.4.324H20.519c0,.252-.216.432-.72.647v2.34h8.063c1.836-2.052,2.088-2.231,2.375-2.231.324,0,.72.144,2.772,1.872,1.368,1.151,1.656,1.619,1.656,2.231,0,.432-.432.72-1.4.792a3.89,3.89,0,0,0-1.728.468c-.684.36-1.476.828-3.275,1.764-.18.108-.324,0-.252-.216a35.952,35.952,0,0,0,.936-3.959H19.8v.323c0,3.672.18,7.056.18,7.739,0,.864-.684,1.332-3.024,1.332-1.44,0-1.836-.36-1.836-1.152,0-.684.216-4.1.216-8.242Zm22.029,10.223c2.231-2.556,2.448-2.772,2.771-2.772.288,0,.576.181,2.052,1.512,1.3,1.188,1.44,1.368,1.44,1.656,0,.18-.108.324-.4.324H20.375c0,.4-.18.54-1.116.72-1.4,1.116-2.231,1.764-3.348,2.592h9.575c1.8-1.908,1.908-1.979,2.268-1.979.4,0,.576.035,2.7,1.512.72.5.9.684.9,1.008,0,.288-.072.432-.972,1.26v1.979c0,3.239.108,4.787.108,5.256a3.428,3.428,0,0,1-2.052,3.347,6.792,6.792,0,0,1-2.2.4c-.576,0-.756-.252-.9-.864a3.076,3.076,0,0,0-2.124-2.231v.756c0,.864-.72,1.332-3.2,1.332-.864,0-1.044-.252-1.044-1.152,0-.359.108-4.319.108-7.522,0-.972,0-1.729-.036-2.376H16.6a1.329,1.329,0,0,1-.4.36v1.979c0,3.239.108,6.911.108,7.379,0,.864-.72,1.332-2.952,1.332-1.116,0-1.3-.252-1.3-1.152,0-.359.108-4.247.108-7.559,0-.972,0-1.656-.036-2.34H9.9a5.643,5.643,0,0,1-.612.54v1.368c0,4.751.036,7.99.036,8.566,0,.972-.684,1.476-2.844,1.476-1.224,0-1.4-.288-1.4-1.115,0-.792.18-4.788.18-8.171,0-1.656-.036-2.844-.144-4.572,3.419.648,4.5.864,4.823,1.188h4c.252-1.152.5-2.16.72-3.312h-8.9a34.532,34.532,0,0,0-4.284.252l-.36-1.224c1.872.18,3.492.252,4.644.252Zm-23.4-3.852a26.54,26.54,0,0,0,3.131.18h2.3c1.4-1.728,1.512-1.8,1.728-1.8.18,0,.432.072,1.4.972.828.756.936,1.008.936,1.224a.286.286,0,0,1-.324.324H7.993c-.648,0-1.692.036-2.844.145Zm4.9-2.664c-.612,0-1.691.036-2.808.144l-.288-1.043a25.589,25.589,0,0,0,3.1.18h.468c1.4-1.728,1.548-1.764,1.728-1.764s.324.036,1.4,1.008c.828.72.9.936.9,1.151a.286.286,0,0,1-.324.324Zm10.8,2.664a27.279,27.279,0,0,0,3.2.18h2.268c1.476-1.8,1.62-1.872,1.872-1.872.144,0,.432.072,1.691,1.152.828.684.9.863.9,1.08,0,.252-.108.359-.324.359H23.759c-.72,0-1.8.036-2.916.145Zm2.771-2.664c-.612,0-1.332.036-2.447.144l-.288-1.043a20.749,20.749,0,0,0,2.735.18h.432c1.4-1.728,1.548-1.764,1.728-1.764s.36.071,1.332,1.008c.828.828.9.936.9,1.151a.286.286,0,0,1-.324.324Zm-.216,13.643c0,2.231.036,4.751.072,6.191a17.765,17.765,0,0,0,2.268-.108.594.594,0,0,0,.54-.612v-7.847H23.507c-.036.144-.18.216-.4.36Z" transform="translate(-0.001 0.005)"/><path class="a" d="M27.466,165.923c2.484-3.024,2.664-3.2,3.023-3.2s.576.108,2.376,1.764c1.368,1.26,1.548,1.476,1.548,1.728,0,.288-.144.433-.4.433H23.759c2.3.468,2.7.792,2.7,1.151,0,.433-.252.612-1.584,1.008a27.132,27.132,0,0,1-2.231,3.456,16.947,16.947,0,0,1,5.615,2.159c1.476.937,2.052,1.692,2.052,3.024a2.407,2.407,0,0,1-2.34,2.2,3.687,3.687,0,0,1-2.736-1.26,27.265,27.265,0,0,0-5.075-3.527c-4.1,3.455-9.827,4.931-18.43,4.644-.216,0-.252-.36-.036-.36,6.443-.5,11.555-2.447,15.01-5.939a33.341,33.341,0,0,0-4.644-1.476l-1.008,1.439A2.385,2.385,0,0,1,8.929,174.2c-1.584,0-3.06-.323-3.06-.972a1.466,1.466,0,0,1,.4-.792c1.62-2.088,2.987-3.959,4.175-5.795h-4.9a36.621,36.621,0,0,0-4.5.252L.72,165.669a43.573,43.573,0,0,0,4.823.252h5.363c.864-1.332,1.62-2.664,2.34-4a15.471,15.471,0,0,0,.72-1.548H8.641v.145c0,1.512-.9,1.979-2.808,1.979-1.152,0-1.4-.216-1.4-1.26,0-.432.144-2.664.144-4.464,0-1.943,0-3.6-.108-5.039,3.779.9,4.751,1.188,4.967,1.656h2.375V149.5h-4.9a49.612,49.612,0,0,0-5.507.252L1.08,148.53a56.671,56.671,0,0,0,5.832.252h20.77c2.484-2.952,2.556-2.988,2.916-2.988s.468.036,2.2,1.584c1.4,1.26,1.512,1.4,1.512,1.728a.346.346,0,0,1-.4.4H23.51c-.036.18-.288.359-.54.54V153.4h2.808c1.872-2.017,1.98-2.088,2.3-2.088.36,0,.576.071,2.3,1.4,1.26.972,1.332,1.08,1.332,1.44,0,.323-.072.432-1.044,1.224v.756c0,1.764.18,4,.18,4.355,0,1.008-.864,1.655-2.952,1.655-1.476,0-1.728-.287-1.728-1.3v-.468H15.012c3.6.972,4.211,1.4,4.211,1.944,0,.468-.4.756-1.728,1.151-.468.756-.972,1.584-1.512,2.448ZM8.641,159.659h3.167v-5.543H9.252a5.2,5.2,0,0,1-.612.5Zm6.875,6.983c-.972,1.439-1.979,2.987-3.023,4.463,2.052.072,3.923.217,5.651.4a14.07,14.07,0,0,0,1.583-2.664,19.181,19.181,0,0,0,.864-2.2Zm.252-13.246h3.168v-3.888H16.308c-.036.144-.288.323-.54.5Zm3.168,6.263v-5.543H15.768v5.543Zm4.031-5.543v5.543h3.2v-5.543Z" transform="translate(-0.001 0.005)"/><path class="a" d="M8.965,211.426c1.908-.324,3.779-.648,5.579-1.044.216-.036.36.288.18.4A105.947,105.947,0,0,1,4.033,216.9c-.144,1.26-.468,1.548-.792,1.548-.576,0-.972-.324-2.808-6.011a15.834,15.834,0,0,0,2.3-.108l2.088-.288V203.15a28.174,28.174,0,0,0-3.563.252l-.324-1.224a36.807,36.807,0,0,0,3.888.252V196.6c0-1.08,0-2.3-.108-3.312a27.711,27.711,0,0,0-3.744.252l-.32-1.228a32.99,32.99,0,0,0,4.175.252H8.5c2.016-2.556,2.088-2.592,2.34-2.592s.4.072,1.872,1.62c.972,1.008,1.08,1.116,1.08,1.332a.371.371,0,0,1-.4.36h-3.6c0,.323-.252.575-.828.827v8.315c1.656-2.3,1.728-2.376,1.979-2.376.288,0,.4.036,1.512,1.3,1.044,1.152,1.116,1.3,1.116,1.476,0,.216-.144.324-.4.324H8.965Zm19.545,9.215c2.268-2.952,2.375-3.024,2.664-3.024s.5.072,2.268,1.656c1.368,1.224,1.512,1.4,1.512,1.728a.324.324,0,0,1-.36.36H12.96c-.828,0-2.375.072-4.067.252l-.36-1.224c1.764.18,3.384.252,4.427.252h7.775v-6.588H17.46a22.6,22.6,0,0,0-3.635.252l-.324-1.224a36.867,36.867,0,0,0,3.959.252h3.276V206.71H18.144v.756c0,1.4-.756,1.872-2.484,1.872-1.332,0-1.656-.216-1.656-1.332,0-.576.18-4.68.18-11.087,0-3.491-.036-4.823-.18-6.947,3.384.756,4.463,1.08,4.788,1.44h8.459c1.583-1.692,1.728-1.764,2.052-1.764.4,0,.576.071,2.375,1.512,1.4,1.151,1.512,1.26,1.512,1.619,0,.324-.144.469-1.152,1.332v4.248c0,4.319.216,7.883.216,8.675,0,1.044-.756,1.728-2.952,1.728-1.26,0-1.548-.216-1.548-1.332v-.72H24.982v6.623h2.376c2.124-2.7,2.34-2.915,2.664-2.915.288,0,.612.18,2.2,1.655,1.3,1.188,1.368,1.4,1.368,1.656s-.144.323-.36.323H24.982v6.588Zm-9.719-28.509a2.161,2.161,0,0,1-.648.54v6.191h2.592v-4.932c0-.756-.036-1.3-.072-1.8Zm1.944,13.858v-6.407H18.144v6.407Zm4.247-7.127h2.772v-6.731H25.63c-.036.216-.216.468-.648.72Zm2.772,7.127v-6.407H24.982v6.407Z" transform="translate(-0.001 0.005)"/><path class="a" d="M26.1,241.235c1.908-2.052,2.052-2.16,2.375-2.16s.72.217,2.448,1.548c1.188.937,1.476,1.26,1.476,1.548s-.18.576-1.08,1.188v6.479c0,7.667.216,13.139.216,14.074,0,1.08-1.008,1.8-3.1,1.8-1.62,0-1.835-.252-1.835-1.331v-1.656H8.209v1.656c0,1.043-.864,1.728-3.1,1.728-1.3,0-1.548-.181-1.548-1.332,0-.972.252-7.6.252-15.479,0-5.435-.036-7.774-.18-9.719,3.888.792,5.076,1.26,5.4,1.656H14.9v-.108c0-3.923-.036-6.3-.144-8.278,5.615.468,6.083.684,6.083,1.3,0,.359-.36.611-1.224,1.079v6.012Zm-11.195.72H9a1.756,1.756,0,0,1-.792.468v8.531h6.7ZM8.209,262h6.7V251.674h-6.7ZM19.62,241.95v9H26.6v-9ZM26.6,262V251.674H19.619V262Z" transform="translate(-0.001 0.005)"/><path class="a" d="M15.012,290.3c0,7.415.252,12.059.252,12.958,0,1.116-.9,1.62-2.735,1.62-1.332,0-1.584-.18-1.584-1.4v-1.765H6.157v3.456c0,1.116-.9,1.62-2.52,1.62-1.332,0-1.62-.145-1.62-1.4,0-.972.288-7.6.288-11.986,0-5.543.036-8.135-.144-10.906,1.583.432,2.664.756,3.383,1.008.18-1.8.324-3.168.432-5.04.036-.647.036-1.151.036-2.159,4.859.972,5.579,1.188,5.579,1.836,0,.359-.288.756-1.4,1.079-1.152,1.764-2.2,3.24-3.419,4.859h3.887c1.476-1.8,1.62-1.907,1.908-1.907.4,0,.54.036,1.944,1.26,1.476,1.26,1.584,1.439,1.584,1.764s-.072.4-1.08,1.188Zm-8.1-5.507c-.072.18-.288.323-.756.575v7.056h4.787V284.8Zm4.031,16.2v-7.847H6.157v7.847Zm17.422-17.638c1.8-2.159,1.908-2.231,2.3-2.231.432,0,.612.072,2.592,1.691,1.044.864,1.152,1.008,1.152,1.4,0,.359-.144.5-1.152,1.332.036,10.006-.216,15.8-.9,18.789-.792,3.492-2.916,4.932-6.228,4.932-.756,0-.936-.18-1.116-.864-.54-1.943-1.548-2.951-4.248-3.671-.216-.072-.216-.4,0-.4a46.255,46.255,0,0,0,5.184,0c1.152-.072,1.908-.576,2.2-2.844.36-2.771.756-7.379.684-17.422H21.491a31.257,31.257,0,0,1-5.724,6.768c-.18.144-.4-.108-.288-.288,1.512-2.3,3.1-7.7,3.923-12.454.144-.937.252-1.477.324-2.448,5.724,1.44,6.012,1.764,6.012,2.3,0,.4-.288.648-1.512,1.008a36.7,36.7,0,0,1-2.3,4.392Zm-7.63,12.635c-.144-2.808-.5-4.644-2.088-5.976-.18-.144-.036-.359.18-.324,4.715.648,6.839,3.24,6.839,5.867,0,2.052-1.224,3.1-2.808,3.1C21.6,298.653,20.843,297.861,20.735,295.99Z" transform="translate(-0.001 0.005)"/><path class="a" d="M30.31,327.779a4.5,4.5,0,1,1,4.535-4.5,4.42,4.42,0,0,1-4.535,4.5Zm0-7.774a3.275,3.275,0,1,0,3.275,3.275A3.242,3.242,0,0,0,30.31,320Z" transform="translate(-0.001 0.005)"/></g></g></svg>