<svg xmlns="http://www.w3.org/2000/svg" viewBox="0 0 189.144 58.488"><defs><style>.a{fill:#3f5d45;}</style></defs><path class="a" d="M-61.752-19.344c.792.528.984,1.488.984,3.048A1.3,1.3,0,0,0-59.4-14.88a1.78,1.78,0,0,0,1.7-1.92c0-1.392-1.464-2.64-3.96-2.76C-61.8-19.56-61.872-19.416-61.752-19.344Zm1.368,14.856a2.981,2.981,0,0,1-1.392,2.472,1.515,1.515,0,0,0-.7,1.272A1.4,1.4,0,0,0-60.912.6a2.055,2.055,0,0,0,1.9-2.16,4.242,4.242,0,0,0-1.176-3C-60.288-4.68-60.384-4.632-60.384-4.488Zm2.064-.336c-.144-.048-.192.048-.12.168a5.128,5.128,0,0,1,.336,3.1A1.094,1.094,0,0,0-56.976-.312a1.467,1.467,0,0,0,1.464-1.464C-55.512-2.832-56.28-4.248-58.32-4.824Zm6.048,2.376c0-1.3-1.008-2.376-3.12-2.712-.144-.024-.192.072-.1.168a3.585,3.585,0,0,1,.72,2.76,1.017,1.017,0,0,0,1.1,1.128A1.4,1.4,0,0,0-52.272-2.448Zm.7-.408A1.071,1.071,0,0,0-50.4-1.824a1.335,1.335,0,0,0,1.272-1.3c0-1.464-1.272-2.208-3.288-2.4-.144-.024-.192.12-.072.192C-51.768-4.872-51.648-3.912-51.576-2.856Zm3.264-3.768c.264-.888.528-1.7.744-2.5.6-.384.7-.48.7-.72,0-.192-.1-.288-.912-.936-.888-.7-1.08-.792-1.3-.792-.192,0-.288.048-1.344,1.128h-.36c.336-.936.672-1.968.912-2.712.7-.5.768-.576.768-.768s-.048-.288-.912-.912c-.984-.72-1.1-.768-1.32-.768-.168,0-.336.072-1.368,1.152h-1.512a34.5,34.5,0,0,0,1.1-3.36c.888-.168,1.128-.432,1.128-.768,0-.36-.384-.7-3.984-1.8a18.583,18.583,0,0,1-.576,3.24c-.216.936-.48,1.824-.744,2.688h-3.6a26.739,26.739,0,0,1-3.072-.168l.24.816a21.07,21.07,0,0,1,2.832-.168h3.432A34.2,34.2,0,0,1-60.648-7.3a19.409,19.409,0,0,1-6.1,6.312c-.12.072-.048.288.1.24a19.743,19.743,0,0,0,7.56-5.4h11.064a13.386,13.386,0,0,1-1.08,4.56,1.661,1.661,0,0,1-1.56.816c-.72.048-1.272.072-2.568.048-.144,0-.144.216,0,.264C-51.48.12-51.1.576-50.832,1.632c.12.48.264.576.888.576a3.874,3.874,0,0,0,2.976-1.1c.72-.792,1.3-2.664,1.8-5.9.672-.456.768-.576.768-.816s-.1-.384-1.08-1.2c-1.056-.888-1.176-.912-1.416-.912-.192,0-.288.024-1.3,1.1Zm-4.3-7.344c-.24.936-.624,2.088-1.08,3.528h-2.328a34.874,34.874,0,0,0,1.632-3.528Zm2.28,4.008c-.216.936-.552,2.04-.936,3.336h-7.368A21.776,21.776,0,0,0-56.28-9.96Zm16.2,5.712c-.048,3.336-.144,4.968-.144,5.592s.144.816,1.056.816c1.392,0,2.136-.36,2.136-1.032,0-.6-.048-2.088-.048-7.872V-12.12c.6-.24.744-.408.744-.624,0-.288-.264-.48-1.776-1.032a25.779,25.779,0,0,0,2.424-3.864c.888-.24,1.08-.384,1.08-.744s-.312-.576-3.768-1.968a13.019,13.019,0,0,1-.456,1.728c-1.56,4.56-3.552,8.472-5.28,10.416-.1.1.072.264.192.192a21.251,21.251,0,0,0,3.912-3.48ZM-21.6-11.256v-7.416c.648-.36.888-.528.888-.792,0-.336-.288-.576-4.152-.912.12,1.3.144,2.04.144,9.12h-2.808c-.7,0-1.776-.048-2.952-.168l.24.816c1.128-.12,2.16-.168,2.712-.168h2.808c0,7.464-.168,11.424-.168,12.072,0,.768.24.864,1.3.864,1.512,0,2.112-.312,2.112-1.008,0-.624-.12-4.752-.12-11.928h6.312c.192,0,.312-.1.312-.264s-.048-.264-.936-1.152c-1.392-1.368-1.488-1.416-1.752-1.416-.24,0-.336.072-2.04,2.352Zm27.744-2.52v1.08A12.823,12.823,0,0,0,3.888-13.1a6.947,6.947,0,0,1,.048.936A6.464,6.464,0,0,1,2.664-7.9c-.432-.12-.984-.24-1.632-.408a6.481,6.481,0,0,1-.168.84C.648-6.7.432-6.072.192-5.4a8.258,8.258,0,0,0-3.264-.144c-.144.024-.192.192-.048.24A4.093,4.093,0,0,1-.744-2.472,1.159,1.159,0,0,0,.5-1.632a1.658,1.658,0,0,0,1.68-1.632A1.966,1.966,0,0,0,1.32-4.872c.744-.5,1.44-1.008,2.208-1.536.936-.144,1.2-.288,1.2-.6,0-.24-.192-.384-1.632-.768A5.45,5.45,0,0,0,5.856-11.9a1.6,1.6,0,0,0,.288-.144C6.12-9.888,6.072-8.5,6.072-8.3c0,.6.12.72.816.72,1.032,0,1.512-.264,1.512-.84,0-.312-.072-2.208-.072-5.352h4.464c.24,0,.312-.072.312-.216,0-.168-.072-.288-.792-.936-.84-.768-.984-.84-1.176-.84-.216,0-.288.1-1.416,1.512H8.328v-.936c.408-.216.528-.312.528-.528,0-.264-.36-.384-2.808-.576a13.859,13.859,0,0,1,.1,2.04H4.3c-.1-.12-.312-.312-.744-.72-.768-.7-.816-.72-1.008-.72s-.264.1-1.3,1.44H.672v-.936c.408-.216.528-.312.528-.528,0-.264-.36-.384-2.736-.576a13.859,13.859,0,0,1,.1,2.04H-1.8a24.53,24.53,0,0,1-2.64-.168l.216.816A15.06,15.06,0,0,1-1.8-13.776h.36v1.152a9.314,9.314,0,0,0-2.448-.48,6.947,6.947,0,0,1,.048.936,7.547,7.547,0,0,1-1.1,4.608c.1-1.128.144-2.424.144-4.008v-4.9a1.877,1.877,0,0,0,.456-.288H12.984c.192,0,.264-.1.264-.24,0-.216-.048-.312-.864-1.08-1.272-1.2-1.392-1.248-1.632-1.248s-.312.072-2.04,2.088H4.032v-1.536c.864-.384.984-.5.984-.792,0-.36-.456-.624-4.248-.864a16.088,16.088,0,0,1,.144,2.592v.6H-4.224c-.12-.264-.768-.456-3.456-1.128.168,1.92.24,3.528.24,7.3A54.024,54.024,0,0,1-7.9-1.92a8.6,8.6,0,0,1-1.44,3.864.138.138,0,0,0,.192.192A11.122,11.122,0,0,0-6.072-2.3a17.734,17.734,0,0,0,1.1-4.944A5.422,5.422,0,0,0-1.9-11.9a1.517,1.517,0,0,0,.456-.264c-.024,2.208-.072,3.624-.072,3.816,0,.6.12.72.816.72.96,0,1.44-.264,1.44-.84,0-.312-.072-2.208-.072-5.3ZM3.1-12c.384-.192.456-.264.456-.432,0-.24-.24-.336-2.328-.576.024.432.024.888.024,1.584,0,.96-.048,1.608-.048,1.968,0,.384.168.576.648.576.84,0,1.248-.144,1.248-.672ZM6.912-3.12a.128.128,0,0,0-.072.24A4.227,4.227,0,0,1,8.568-1.224c-1.9.024-3.624.048-5.352.048,1.776-1.248,3.048-2.208,4.728-3.5.936-.1,1.248-.216,1.248-.528,0-.384-.168-.5-3.648-1.752a11.2,11.2,0,0,1-.6,1.3,36.314,36.314,0,0,1-2.76,4.488c-1.8,0-3.624-.048-5.664-.1-.84-.024-1.152-.048-1.92-.1,1.008,3.408,1.152,3.6,1.464,3.6.216,0,.312-.1.552-.552C2.328.768,4.944.336,8.976-.408A6.582,6.582,0,0,1,9.384.864,1.4,1.4,0,0,0,10.8,2.088a1.768,1.768,0,0,0,1.8-1.8C12.6-1.32,11.064-3.1,6.912-3.12ZM10.8-11.952c.5-.24.576-.336.576-.528,0-.24-.456-.36-2.472-.528.048.576.048,1.1.048,1.752,0,.984-.048,1.7-.048,2.112,0,.5.336.864,2.208.864,2.04,0,2.592-.48,2.592-1.032a1.062,1.062,0,0,0-.36-.84.778.778,0,0,1-.264-.624c0-.288.024-.84.1-1.608.024-.144-.12-.192-.168-.048a11.051,11.051,0,0,1-.816,1.872c-.216.384-.384.432-.864.432s-.528-.072-.528-.408ZM43.2-7.536h-24v.768h24Zm24,0h-24v.768h24Zm-164.016,34.7c1.368-.12,2.3-.168,3.144-.168h17.736c.192,0,.312-.1.312-.264s-.048-.24-1.32-1.512c-1.344-1.344-1.416-1.368-1.68-1.368-.24,0-.264.024-2.232,2.5H-93.672c-.84,0-1.8-.048-3.384-.168Zm46.056-7.2c-.24.792-.408,1.368-.792,2.472-.048.144.024.168.168.12.864-.36,1.272-.5,1.8-.7a5.139,5.139,0,0,1,1.752-.24c.864-.024,1.128-.264,1.128-.7,0-.384-.288-.768-1.224-1.656-1.152-1.08-1.44-1.224-1.728-1.224-.264,0-.384.072-1.656,1.44h-4.872V17.256c.864-.384.984-.5.984-.792,0-.36-.456-.624-4.3-.864a13.432,13.432,0,0,1,.144,1.992v1.9H-64.9a6.419,6.419,0,0,0-.96-1.464c-.1-.12-.264-.1-.264.048a2.436,2.436,0,0,1-1.2,2.568,1.938,1.938,0,0,0-1.008,1.68,1.449,1.449,0,0,0,1.56,1.512,2.278,2.278,0,0,0,2.3-2.376,4.955,4.955,0,0,0-.24-1.488Zm-5.352,9.6h5.856a.215.215,0,0,0,.24-.24c0-.216-.216-.456-.864-1.056C-52.2,27.024-52.272,27-52.512,27s-.312.072-1.824,2.088h-1.776V24.72c.36-.192.48-.312.528-.456h4.824c.192,0,.36-.072.36-.264s-.144-.36-.888-1.08c-1.08-1.056-1.176-1.08-1.368-1.08s-.24.048-1.728,1.944h-7.9c-.7,0-1.776-.048-2.952-.168l.24.816c1.128-.12,2.16-.168,2.712-.168h3.024c.072.84.072,1.56.072,2.448v6.48a4.533,4.533,0,0,1-1.032-.7,6.518,6.518,0,0,1-1.9-2.64,11.375,11.375,0,0,0,.408-2.04c.6-.216.768-.384.768-.6,0-.384-.528-.552-3.912-1.32,0,.5,0,.912-.048,1.488-.336,5.208-1.992,8.856-3.96,10.464-.12.1.024.24.144.192a12.925,12.925,0,0,0,6.384-7.464,8.534,8.534,0,0,0,2.4,4.752c1.512,1.416,3.36,2.28,7.416,2.28a31.33,31.33,0,0,0,3.648-.072.708.708,0,0,0,.672-.624,3.544,3.544,0,0,1,1.752-2.736c.12-.072.1-.288-.048-.264a44.575,44.575,0,0,1-6.5.384,19.664,19.664,0,0,1-3.12-.216Zm26.256-.672c.36-.576.7-1.128,1.008-1.632C-27.96,27-27.7,26.808-27.7,26.5c0-.36-.408-.648-2.808-1.3h7.44v.312c0,.672.168.864,1.152.864,1.392,0,1.968-.432,1.968-1.1,0-.24-.12-1.728-.12-2.9v-.5c.648-.528.7-.6.7-.816,0-.24-.048-.312-.888-.96-1.152-.888-1.3-.936-1.536-.936-.216,0-.288.048-1.536,1.392H-25.2V18.312c.168-.12.336-.24.36-.36H-17.9a.23.23,0,0,0,.264-.264c0-.216-.072-.312-1.008-1.152C-19.8,15.5-19.872,15.48-20.112,15.48s-.288.024-1.944,1.992H-35.9a37.754,37.754,0,0,1-3.888-.168l.216.816a33.059,33.059,0,0,1,3.672-.168h3.264v2.592h-1.584c-.144-.312-.792-.5-3.312-1.1.072.96.072,2.064.072,3.36,0,1.2-.1,2.688-.1,2.976,0,.7.168.84.936.84,1.272,0,1.872-.312,1.872-1.32v-.1H-31.2a10.283,10.283,0,0,1-.48,1.032c-.48.888-.984,1.776-1.56,2.664h-3.576a29.025,29.025,0,0,1-3.216-.168l.216.816a24.394,24.394,0,0,1,3-.168h3.264c-.792,1.224-1.7,2.472-2.784,3.864a.976.976,0,0,0-.264.528c0,.432.984.648,2.04.648a1.592,1.592,0,0,0,1.416-.7l.672-.96a22.286,22.286,0,0,1,3.1.984c-2.3,2.328-5.712,3.624-10.008,3.96-.144,0-.12.24.024.24,5.736.192,9.552-.792,12.288-3.1A18.174,18.174,0,0,1-23.688,37.2a2.457,2.457,0,0,0,1.824.84,1.6,1.6,0,0,0,1.56-1.464c0-.888-.384-1.392-1.368-2.016a11.294,11.294,0,0,0-3.744-1.44,18.108,18.108,0,0,0,1.488-2.3c.888-.264,1.056-.384,1.056-.672,0-.24-.264-.456-1.8-.768h6.84c.168,0,.264-.1.264-.288,0-.168-.12-.312-1.032-1.152-1.2-1.1-1.344-1.176-1.584-1.176s-.36.12-2.016,2.136Zm3.072.48a12.805,12.805,0,0,1-.576,1.464,9.378,9.378,0,0,1-1.056,1.776c-1.152-.12-2.4-.216-3.768-.264.7-.984,1.368-2.016,2.016-2.976Zm-7.968-8.016a3.389,3.389,0,0,0,.408-.336h1.7v3.7h-2.112ZM-30,18.288c.168-.12.336-.24.36-.336h1.752v2.592H-30Zm6.936,2.736v3.7H-25.2v-3.7ZM-30,24.72v-3.7h2.112v3.7Zm26.52-4.032c.648-.552.7-.624.7-.864,0-.216-.072-.336-.984-1.08-1.056-.864-1.128-.864-1.368-.864-.216,0-.312.072-1.272,1.32H-7.44c-.216-.288-.912-.624-3.192-1.2.1,1.392.1,2.736.1,5.5,0,3.456-.1,7.248-.1,7.92,0,.768.216.888.72.888,1.3,0,1.944-.312,1.944-1.032v-2.04h1.824v.528c0,.7.192.936.816.936,1.512,0,1.992-.432,1.992-1.176,0-.624-.144-2.376-.144-6.312Zm-4.488,8.064V20.016a1.993,1.993,0,0,0,.528-.336h1.3v9.072ZM.624,25.368A19.588,19.588,0,0,1-1.968,25.2l.24.816a16.548,16.548,0,0,1,2.352-.168H3.408C-2.208,33.192-2.28,33.6-2.28,34.872c0,1.536.672,2.472,6.192,2.472,6.5,0,7.224-.792,7.224-1.92a2.182,2.182,0,0,0-.384-1.272,1.9,1.9,0,0,1-.384-1.056c0-.312.024-.984.144-2.952,0-.144-.144-.192-.192-.048a10.013,10.013,0,0,1-1.9,3.672c-.552.552-1.512.84-4.056.84-3.5,0-3.6-.216-3.6-.744s.744-1.56,5.088-6.552c1.752-.888,1.776-.984,1.776-1.3,0-.216-.12-.384-1.2-1.32-.96-.816-1.1-.888-1.368-.888-.24,0-.336.048-1.7,1.56Zm.144-4.2a25.762,25.762,0,0,0,1.848-3.312c.912-.288,1.08-.408,1.08-.792,0-.288-.216-.528-4.056-1.416A15.955,15.955,0,0,1-.624,17.52a31.428,31.428,0,0,1-2.64,8.232c-.072.12.144.24.24.144a24.976,24.976,0,0,0,3.48-4.248H11.04c.312,0,.408-.1.408-.312s-.12-.36-.936-1.176c-1.32-1.344-1.464-1.392-1.7-1.392s-.336.072-2.112,2.4ZM37.536,17.76c.648-.264.864-.5.864-.816s-1.008-.6-3.96-.96a57.544,57.544,0,0,1,.192,6.864H31.968V17.832c.576-.336.792-.5.792-.864,0-.312-.744-.6-3.744-1.008a63.43,63.43,0,0,1,.192,6.888h-1.56c-.84-.888-.936-.96-1.128-.96-.168,0-.264.024-1.536,1.92h-.768v-3.7c.408-.216.552-.288.552-.528a.216.216,0,0,0-.024-.12c.672-.072,1.368-.168,2.064-.264,1.224.1,1.56.072,1.56-.312,0-.408-.312-.792-2.88-2.64a4.158,4.158,0,0,1-.744.528,29.359,29.359,0,0,1-7.44,2.952c-.144.024-.1.264.048.264,1.368,0,2.736-.072,4.128-.192.024.576.024,1.248.024,2.328v1.68H20.136a24.53,24.53,0,0,1-2.64-.168l.216.816a15.061,15.061,0,0,1,2.424-.168H21.5v4.776h-.12a8.528,8.528,0,0,0-2.952-1.032c.072,1.176.072,2.136.072,3.672,0,2.424-.144,4.68-.144,5.064,0,.816.168.936,1.032.936,1.128,0,1.752-.408,1.752-1.152v-1.1H24.7V36c0,.792.216,1.008,1.1,1.008.84,0,1.728-.5,1.728-1.224,0-.672-.12-2.184-.12-4.008V30.528c.672-.552.72-.624.72-.84s-.144-.408-.888-1.056c-1.08-.96-1.224-1.032-1.464-1.032-.216,0-.288.072-1.416,1.464h-.144V24.288h3.768c.36,0,.48-.072.48-.288,0-.168-.048-.288-.384-.672h1.128v2.328c0,7.728-.216,10.728-.216,11.4,0,.624.144.864,1.1.864,1.128,0,1.872-.288,1.872-1.1V35.472h2.664v1.416c0,.792.216.936,1.152.936,1.392,0,1.872-.456,1.872-1.152,0-1.176-.12-3.408-.12-11.184v-2.16H40.08c.288,0,.408-.1.408-.312s-.048-.288-.768-1.272c-.648-.864-.744-.912-.888-.912s-.288.144-1.3,2.016Zm-2.9,5.568v5.016H31.968V23.328ZM31.968,34.992V28.824h2.664v6.168Zm-10.824-.024v-5.16a1.948,1.948,0,0,0,.312-.264H24.7v5.424Zm27.024-2.232a3.492,3.492,0,0,1-1.1,2.712c-.624.6-.792.888-.792,1.248a1.164,1.164,0,0,0,1.32,1.176,1.868,1.868,0,0,0,1.7-1.992,5.483,5.483,0,0,0-.84-3.144C48.384,32.616,48.168,32.592,48.168,32.736Zm1.488-.264c-.144-.048-.312,0-.216.12a3.42,3.42,0,0,1,.48,2.568c-.048.5-.1.816-.1,1.128a1,1,0,0,0,.888,1.008c.912,0,1.464-.576,1.464-1.68A3.379,3.379,0,0,0,49.656,32.472Zm1.68-.456c-.144-.024-.312.048-.192.144a4.322,4.322,0,0,1,1.56,3.36c0,.672.336,1.176.984,1.176A1.248,1.248,0,0,0,54.912,35.3C54.912,33.936,54.024,32.592,51.336,32.016Zm1.872-.408c-.144,0-.216.12-.1.192a3.438,3.438,0,0,1,2.16,2.976c.1.936.552,1.248,1.032,1.248.888,0,1.248-.72,1.248-1.464C57.552,33.192,56.448,31.68,53.208,31.608ZM49.512,16.9a7,7,0,0,0-2.5-1.032c.072.792.072,1.512.072,3.5,0,3.264-.12,5.448-.12,5.928,0,.6.1.7.888.7.84,0,1.272-.192,1.272-.888v-.6h1.7v2.784H49.776a21.149,21.149,0,0,1-2.688-.192l.24.84a18.422,18.422,0,0,1,2.448-.168h1.056V29.76c-.912.048-1.872.12-2.976.168a15.193,15.193,0,0,1-1.56.024c.672,2.928.888,3.312,1.248,3.312.216,0,.384-.144.528-.648a68.5,68.5,0,0,0,9.336-3.336.114.114,0,0,0-.072-.216c-1.464.192-2.784.36-4.2.5v-1.8h4.008c.168,0,.24-.1.24-.264s-.1-.312-.744-.936c-.912-.864-.984-.888-1.2-.888-.168,0-.288.12-1.512,1.608h-.792V24.5h1.8v.288c0,.6.1.768.624.768,1.272,0,1.68-.288,1.68-1.08,0-.6-.144-2.376-.144-4.2V18.216c.6-.5.648-.576.648-.744,0-.216-.12-.336-.864-.96-.912-.744-1.032-.768-1.176-.768-.168,0-.24.048-1.056,1.152Zm3.408,7.128V22.848c.744-1.128,1.248-1.872,1.728-2.592.12-.072.216-.144.288-.192v3.96Zm-3.792-4.752a2.121,2.121,0,0,1,.432,1.536c-.048.528-.12.912-.12,1.224,0,.432.216.792.648.792a1.014,1.014,0,0,0,.96-.864v2.064h-1.92Zm0-1.632a2.447,2.447,0,0,0,.384-.264h1.512c.024.36.024.744.024,1.056V21a2.687,2.687,0,0,0-1.92-2.064Zm5.808,1.7a8.522,8.522,0,0,0-1.416-.768c-.048.432-.072.72-.144,1.128-.1.576-.264,1.584-.456,2.4V17.76c.24-.168.336-.24.36-.384h1.656Zm8.928,2.424V17.3c.672-.312.84-.48.84-.72,0-.36-.36-.672-3.744-.912a39.586,39.586,0,0,1,.168,4.68v7.512h-.36c-.24-.24-.936-.48-2.976-1.08a35.544,35.544,0,0,1,.1,3.72c0,3.672-.12,6.24-.12,6.624,0,.816.072.936.936.936,1.368,0,1.776-.408,1.776-1.152v-.864h4.656v.816c0,.792.12.912.96.912,1.1,0,1.944-.408,1.944-1.128,0-.936-.12-3.048-.12-4.872V29.352c.624-.528.744-.648.744-.888s-.144-.36-1.08-1.176c-.888-.768-1.128-.912-1.416-.912-.216,0-.336.072-1.416,1.488h-.888V22.248h5.064c.192,0,.312-.1.312-.264,0-.192-.12-.336-.888-1.1-.936-.936-1.176-1.1-1.416-1.1-.216,0-.384.144-1.776,1.992Zm-3.384,13.8v-6.96a1.058,1.058,0,0,0,.288-.264h4.368v7.224Zm26.3-9.528c-1.1,1.608-1.3,2.352-1.3,4.992,0,.168.072.288.24.288a.549.549,0,0,0,.552-.456,3,3,0,0,1-.12-.768c0-1.32.36-1.872,2.184-3.312,3-2.376,3.744-3.648,3.744-5.688,0-2.664-2.088-4.536-5.64-4.536-3.1,0-5.856,2.16-5.856,4.464a1.752,1.752,0,0,0,1.8,1.848,1.707,1.707,0,0,0,1.824-1.8,1.842,1.842,0,0,0-.816-1.416.724.724,0,0,1-.36-.672c0-.864,1.128-1.776,2.5-1.776,1.656,0,2.928,1.152,2.928,3.936A7.4,7.4,0,0,1,86.784,26.04Zm-.912,7.2a1.956,1.956,0,1,0,1.944,1.944A1.972,1.972,0,0,0,85.872,33.24Z" transform="translate(97.056 20.424)"/></svg>